G75*
%MOIN*%
%OFA0B0*%
%FSLAX25Y25*%
%IPPOS*%
%LPD*%
%AMOC8*
5,1,8,0,0,1.08239X$1,22.5*
%
%ADD10C,0.00000*%
%ADD11C,0.00800*%
%ADD12C,0.00400*%
%ADD13C,0.00100*%
%ADD14C,0.01000*%
%ADD15C,0.00500*%
%ADD16C,0.00600*%
%ADD17C,0.02400*%
%ADD18C,0.00200*%
%ADD19C,0.00700*%
%ADD20R,0.03500X0.05000*%
D10*
X0056500Y0001000D02*
X0056500Y0138795D01*
X0410831Y0138795D01*
X0410831Y0001000D01*
X0056500Y0001000D01*
X0011000Y0081000D02*
X0011002Y0081161D01*
X0011008Y0081321D01*
X0011018Y0081482D01*
X0011032Y0081642D01*
X0011050Y0081802D01*
X0011071Y0081961D01*
X0011097Y0082120D01*
X0011127Y0082278D01*
X0011160Y0082435D01*
X0011198Y0082592D01*
X0011239Y0082747D01*
X0011284Y0082901D01*
X0011333Y0083054D01*
X0011386Y0083206D01*
X0011442Y0083357D01*
X0011503Y0083506D01*
X0011566Y0083654D01*
X0011634Y0083800D01*
X0011705Y0083944D01*
X0011779Y0084086D01*
X0011857Y0084227D01*
X0011939Y0084365D01*
X0012024Y0084502D01*
X0012112Y0084636D01*
X0012204Y0084768D01*
X0012299Y0084898D01*
X0012397Y0085026D01*
X0012498Y0085151D01*
X0012602Y0085273D01*
X0012709Y0085393D01*
X0012819Y0085510D01*
X0012932Y0085625D01*
X0013048Y0085736D01*
X0013167Y0085845D01*
X0013288Y0085950D01*
X0013412Y0086053D01*
X0013538Y0086153D01*
X0013666Y0086249D01*
X0013797Y0086342D01*
X0013931Y0086432D01*
X0014066Y0086519D01*
X0014204Y0086602D01*
X0014343Y0086682D01*
X0014485Y0086758D01*
X0014628Y0086831D01*
X0014773Y0086900D01*
X0014920Y0086966D01*
X0015068Y0087028D01*
X0015218Y0087086D01*
X0015369Y0087141D01*
X0015522Y0087192D01*
X0015676Y0087239D01*
X0015831Y0087282D01*
X0015987Y0087321D01*
X0016143Y0087357D01*
X0016301Y0087388D01*
X0016459Y0087416D01*
X0016618Y0087440D01*
X0016778Y0087460D01*
X0016938Y0087476D01*
X0017098Y0087488D01*
X0017259Y0087496D01*
X0017420Y0087500D01*
X0017580Y0087500D01*
X0017741Y0087496D01*
X0017902Y0087488D01*
X0018062Y0087476D01*
X0018222Y0087460D01*
X0018382Y0087440D01*
X0018541Y0087416D01*
X0018699Y0087388D01*
X0018857Y0087357D01*
X0019013Y0087321D01*
X0019169Y0087282D01*
X0019324Y0087239D01*
X0019478Y0087192D01*
X0019631Y0087141D01*
X0019782Y0087086D01*
X0019932Y0087028D01*
X0020080Y0086966D01*
X0020227Y0086900D01*
X0020372Y0086831D01*
X0020515Y0086758D01*
X0020657Y0086682D01*
X0020796Y0086602D01*
X0020934Y0086519D01*
X0021069Y0086432D01*
X0021203Y0086342D01*
X0021334Y0086249D01*
X0021462Y0086153D01*
X0021588Y0086053D01*
X0021712Y0085950D01*
X0021833Y0085845D01*
X0021952Y0085736D01*
X0022068Y0085625D01*
X0022181Y0085510D01*
X0022291Y0085393D01*
X0022398Y0085273D01*
X0022502Y0085151D01*
X0022603Y0085026D01*
X0022701Y0084898D01*
X0022796Y0084768D01*
X0022888Y0084636D01*
X0022976Y0084502D01*
X0023061Y0084365D01*
X0023143Y0084227D01*
X0023221Y0084086D01*
X0023295Y0083944D01*
X0023366Y0083800D01*
X0023434Y0083654D01*
X0023497Y0083506D01*
X0023558Y0083357D01*
X0023614Y0083206D01*
X0023667Y0083054D01*
X0023716Y0082901D01*
X0023761Y0082747D01*
X0023802Y0082592D01*
X0023840Y0082435D01*
X0023873Y0082278D01*
X0023903Y0082120D01*
X0023929Y0081961D01*
X0023950Y0081802D01*
X0023968Y0081642D01*
X0023982Y0081482D01*
X0023992Y0081321D01*
X0023998Y0081161D01*
X0024000Y0081000D01*
X0023998Y0080839D01*
X0023992Y0080679D01*
X0023982Y0080518D01*
X0023968Y0080358D01*
X0023950Y0080198D01*
X0023929Y0080039D01*
X0023903Y0079880D01*
X0023873Y0079722D01*
X0023840Y0079565D01*
X0023802Y0079408D01*
X0023761Y0079253D01*
X0023716Y0079099D01*
X0023667Y0078946D01*
X0023614Y0078794D01*
X0023558Y0078643D01*
X0023497Y0078494D01*
X0023434Y0078346D01*
X0023366Y0078200D01*
X0023295Y0078056D01*
X0023221Y0077914D01*
X0023143Y0077773D01*
X0023061Y0077635D01*
X0022976Y0077498D01*
X0022888Y0077364D01*
X0022796Y0077232D01*
X0022701Y0077102D01*
X0022603Y0076974D01*
X0022502Y0076849D01*
X0022398Y0076727D01*
X0022291Y0076607D01*
X0022181Y0076490D01*
X0022068Y0076375D01*
X0021952Y0076264D01*
X0021833Y0076155D01*
X0021712Y0076050D01*
X0021588Y0075947D01*
X0021462Y0075847D01*
X0021334Y0075751D01*
X0021203Y0075658D01*
X0021069Y0075568D01*
X0020934Y0075481D01*
X0020796Y0075398D01*
X0020657Y0075318D01*
X0020515Y0075242D01*
X0020372Y0075169D01*
X0020227Y0075100D01*
X0020080Y0075034D01*
X0019932Y0074972D01*
X0019782Y0074914D01*
X0019631Y0074859D01*
X0019478Y0074808D01*
X0019324Y0074761D01*
X0019169Y0074718D01*
X0019013Y0074679D01*
X0018857Y0074643D01*
X0018699Y0074612D01*
X0018541Y0074584D01*
X0018382Y0074560D01*
X0018222Y0074540D01*
X0018062Y0074524D01*
X0017902Y0074512D01*
X0017741Y0074504D01*
X0017580Y0074500D01*
X0017420Y0074500D01*
X0017259Y0074504D01*
X0017098Y0074512D01*
X0016938Y0074524D01*
X0016778Y0074540D01*
X0016618Y0074560D01*
X0016459Y0074584D01*
X0016301Y0074612D01*
X0016143Y0074643D01*
X0015987Y0074679D01*
X0015831Y0074718D01*
X0015676Y0074761D01*
X0015522Y0074808D01*
X0015369Y0074859D01*
X0015218Y0074914D01*
X0015068Y0074972D01*
X0014920Y0075034D01*
X0014773Y0075100D01*
X0014628Y0075169D01*
X0014485Y0075242D01*
X0014343Y0075318D01*
X0014204Y0075398D01*
X0014066Y0075481D01*
X0013931Y0075568D01*
X0013797Y0075658D01*
X0013666Y0075751D01*
X0013538Y0075847D01*
X0013412Y0075947D01*
X0013288Y0076050D01*
X0013167Y0076155D01*
X0013048Y0076264D01*
X0012932Y0076375D01*
X0012819Y0076490D01*
X0012709Y0076607D01*
X0012602Y0076727D01*
X0012498Y0076849D01*
X0012397Y0076974D01*
X0012299Y0077102D01*
X0012204Y0077232D01*
X0012112Y0077364D01*
X0012024Y0077498D01*
X0011939Y0077635D01*
X0011857Y0077773D01*
X0011779Y0077914D01*
X0011705Y0078056D01*
X0011634Y0078200D01*
X0011566Y0078346D01*
X0011503Y0078494D01*
X0011442Y0078643D01*
X0011386Y0078794D01*
X0011333Y0078946D01*
X0011284Y0079099D01*
X0011239Y0079253D01*
X0011198Y0079408D01*
X0011160Y0079565D01*
X0011127Y0079722D01*
X0011097Y0079880D01*
X0011071Y0080039D01*
X0011050Y0080198D01*
X0011032Y0080358D01*
X0011018Y0080518D01*
X0011008Y0080679D01*
X0011002Y0080839D01*
X0011000Y0081000D01*
D11*
X0071500Y0107100D02*
X0072600Y0106000D01*
X0076500Y0106000D01*
X0080400Y0106000D01*
X0081500Y0107100D01*
X0076500Y0107000D02*
X0076500Y0106000D01*
X0076500Y0114500D02*
X0076500Y0117500D01*
X0076500Y0125000D02*
X0076500Y0126000D01*
X0072600Y0126000D01*
X0071500Y0124900D01*
X0076500Y0126000D02*
X0080400Y0126000D01*
X0081500Y0124900D01*
X0106500Y0113500D02*
X0106500Y0108500D01*
X0098705Y0116000D02*
X0098709Y0116314D01*
X0098720Y0116628D01*
X0098740Y0116941D01*
X0098767Y0117254D01*
X0098801Y0117566D01*
X0098843Y0117877D01*
X0098893Y0118187D01*
X0098951Y0118496D01*
X0099016Y0118803D01*
X0099088Y0119109D01*
X0099168Y0119413D01*
X0099256Y0119714D01*
X0099351Y0120014D01*
X0099453Y0120311D01*
X0099562Y0120605D01*
X0099679Y0120896D01*
X0099803Y0121185D01*
X0099933Y0121471D01*
X0100071Y0121753D01*
X0100216Y0122032D01*
X0100367Y0122307D01*
X0100525Y0122578D01*
X0100690Y0122845D01*
X0100861Y0123109D01*
X0101039Y0123367D01*
X0101223Y0123622D01*
X0101413Y0123872D01*
X0101609Y0124117D01*
X0101812Y0124357D01*
X0102020Y0124593D01*
X0102233Y0124823D01*
X0102453Y0125047D01*
X0102677Y0125267D01*
X0102907Y0125480D01*
X0103143Y0125688D01*
X0103383Y0125891D01*
X0103628Y0126087D01*
X0103878Y0126277D01*
X0104133Y0126461D01*
X0104391Y0126639D01*
X0104655Y0126810D01*
X0104922Y0126975D01*
X0105193Y0127133D01*
X0105468Y0127284D01*
X0105747Y0127429D01*
X0106029Y0127567D01*
X0106315Y0127697D01*
X0106604Y0127821D01*
X0106895Y0127938D01*
X0107189Y0128047D01*
X0107486Y0128149D01*
X0107786Y0128244D01*
X0108087Y0128332D01*
X0108391Y0128412D01*
X0108697Y0128484D01*
X0109004Y0128549D01*
X0109313Y0128607D01*
X0109623Y0128657D01*
X0109934Y0128699D01*
X0110246Y0128733D01*
X0110559Y0128760D01*
X0110872Y0128780D01*
X0111186Y0128791D01*
X0111500Y0128795D01*
X0111814Y0128791D01*
X0112128Y0128780D01*
X0112441Y0128760D01*
X0112754Y0128733D01*
X0113066Y0128699D01*
X0113377Y0128657D01*
X0113687Y0128607D01*
X0113996Y0128549D01*
X0114303Y0128484D01*
X0114609Y0128412D01*
X0114913Y0128332D01*
X0115214Y0128244D01*
X0115514Y0128149D01*
X0115811Y0128047D01*
X0116105Y0127938D01*
X0116396Y0127821D01*
X0116685Y0127697D01*
X0116971Y0127567D01*
X0117253Y0127429D01*
X0117532Y0127284D01*
X0117807Y0127133D01*
X0118078Y0126975D01*
X0118345Y0126810D01*
X0118609Y0126639D01*
X0118867Y0126461D01*
X0119122Y0126277D01*
X0119372Y0126087D01*
X0119617Y0125891D01*
X0119857Y0125688D01*
X0120093Y0125480D01*
X0120323Y0125267D01*
X0120547Y0125047D01*
X0120767Y0124823D01*
X0120980Y0124593D01*
X0121188Y0124357D01*
X0121391Y0124117D01*
X0121587Y0123872D01*
X0121777Y0123622D01*
X0121961Y0123367D01*
X0122139Y0123109D01*
X0122310Y0122845D01*
X0122475Y0122578D01*
X0122633Y0122307D01*
X0122784Y0122032D01*
X0122929Y0121753D01*
X0123067Y0121471D01*
X0123197Y0121185D01*
X0123321Y0120896D01*
X0123438Y0120605D01*
X0123547Y0120311D01*
X0123649Y0120014D01*
X0123744Y0119714D01*
X0123832Y0119413D01*
X0123912Y0119109D01*
X0123984Y0118803D01*
X0124049Y0118496D01*
X0124107Y0118187D01*
X0124157Y0117877D01*
X0124199Y0117566D01*
X0124233Y0117254D01*
X0124260Y0116941D01*
X0124280Y0116628D01*
X0124291Y0116314D01*
X0124295Y0116000D01*
X0124291Y0115686D01*
X0124280Y0115372D01*
X0124260Y0115059D01*
X0124233Y0114746D01*
X0124199Y0114434D01*
X0124157Y0114123D01*
X0124107Y0113813D01*
X0124049Y0113504D01*
X0123984Y0113197D01*
X0123912Y0112891D01*
X0123832Y0112587D01*
X0123744Y0112286D01*
X0123649Y0111986D01*
X0123547Y0111689D01*
X0123438Y0111395D01*
X0123321Y0111104D01*
X0123197Y0110815D01*
X0123067Y0110529D01*
X0122929Y0110247D01*
X0122784Y0109968D01*
X0122633Y0109693D01*
X0122475Y0109422D01*
X0122310Y0109155D01*
X0122139Y0108891D01*
X0121961Y0108633D01*
X0121777Y0108378D01*
X0121587Y0108128D01*
X0121391Y0107883D01*
X0121188Y0107643D01*
X0120980Y0107407D01*
X0120767Y0107177D01*
X0120547Y0106953D01*
X0120323Y0106733D01*
X0120093Y0106520D01*
X0119857Y0106312D01*
X0119617Y0106109D01*
X0119372Y0105913D01*
X0119122Y0105723D01*
X0118867Y0105539D01*
X0118609Y0105361D01*
X0118345Y0105190D01*
X0118078Y0105025D01*
X0117807Y0104867D01*
X0117532Y0104716D01*
X0117253Y0104571D01*
X0116971Y0104433D01*
X0116685Y0104303D01*
X0116396Y0104179D01*
X0116105Y0104062D01*
X0115811Y0103953D01*
X0115514Y0103851D01*
X0115214Y0103756D01*
X0114913Y0103668D01*
X0114609Y0103588D01*
X0114303Y0103516D01*
X0113996Y0103451D01*
X0113687Y0103393D01*
X0113377Y0103343D01*
X0113066Y0103301D01*
X0112754Y0103267D01*
X0112441Y0103240D01*
X0112128Y0103220D01*
X0111814Y0103209D01*
X0111500Y0103205D01*
X0111186Y0103209D01*
X0110872Y0103220D01*
X0110559Y0103240D01*
X0110246Y0103267D01*
X0109934Y0103301D01*
X0109623Y0103343D01*
X0109313Y0103393D01*
X0109004Y0103451D01*
X0108697Y0103516D01*
X0108391Y0103588D01*
X0108087Y0103668D01*
X0107786Y0103756D01*
X0107486Y0103851D01*
X0107189Y0103953D01*
X0106895Y0104062D01*
X0106604Y0104179D01*
X0106315Y0104303D01*
X0106029Y0104433D01*
X0105747Y0104571D01*
X0105468Y0104716D01*
X0105193Y0104867D01*
X0104922Y0105025D01*
X0104655Y0105190D01*
X0104391Y0105361D01*
X0104133Y0105539D01*
X0103878Y0105723D01*
X0103628Y0105913D01*
X0103383Y0106109D01*
X0103143Y0106312D01*
X0102907Y0106520D01*
X0102677Y0106733D01*
X0102453Y0106953D01*
X0102233Y0107177D01*
X0102020Y0107407D01*
X0101812Y0107643D01*
X0101609Y0107883D01*
X0101413Y0108128D01*
X0101223Y0108378D01*
X0101039Y0108633D01*
X0100861Y0108891D01*
X0100690Y0109155D01*
X0100525Y0109422D01*
X0100367Y0109693D01*
X0100216Y0109968D01*
X0100071Y0110247D01*
X0099933Y0110529D01*
X0099803Y0110815D01*
X0099679Y0111104D01*
X0099562Y0111395D01*
X0099453Y0111689D01*
X0099351Y0111986D01*
X0099256Y0112286D01*
X0099168Y0112587D01*
X0099088Y0112891D01*
X0099016Y0113197D01*
X0098951Y0113504D01*
X0098893Y0113813D01*
X0098843Y0114123D01*
X0098801Y0114434D01*
X0098767Y0114746D01*
X0098740Y0115059D01*
X0098720Y0115372D01*
X0098709Y0115686D01*
X0098705Y0116000D01*
X0131500Y0116000D02*
X0131500Y0112100D01*
X0132600Y0111000D01*
X0132500Y0116000D02*
X0131500Y0116000D01*
X0131500Y0119900D01*
X0132600Y0121000D01*
X0140000Y0116000D02*
X0143000Y0116000D01*
X0150500Y0116000D02*
X0151500Y0116000D01*
X0151500Y0119900D01*
X0150400Y0121000D01*
X0151500Y0116000D02*
X0151500Y0112100D01*
X0150400Y0111000D01*
X0191500Y0113500D02*
X0191500Y0118500D01*
X0246500Y0093500D02*
X0249000Y0096000D01*
X0254000Y0096000D01*
X0256500Y0093500D01*
X0256500Y0088500D01*
X0254000Y0086000D01*
X0249000Y0086000D01*
X0246500Y0088500D01*
X0246500Y0093500D01*
X0279500Y0097000D02*
X0279500Y0105047D01*
X0284500Y0101000D02*
X0284502Y0101172D01*
X0284508Y0101343D01*
X0284519Y0101515D01*
X0284534Y0101686D01*
X0284553Y0101857D01*
X0284576Y0102027D01*
X0284603Y0102197D01*
X0284635Y0102366D01*
X0284670Y0102534D01*
X0284710Y0102701D01*
X0284754Y0102867D01*
X0284801Y0103032D01*
X0284853Y0103196D01*
X0284909Y0103358D01*
X0284969Y0103519D01*
X0285033Y0103679D01*
X0285101Y0103837D01*
X0285172Y0103993D01*
X0285247Y0104147D01*
X0285327Y0104300D01*
X0285409Y0104450D01*
X0285496Y0104599D01*
X0285586Y0104745D01*
X0285680Y0104889D01*
X0285777Y0105031D01*
X0285878Y0105170D01*
X0285982Y0105307D01*
X0286089Y0105441D01*
X0286200Y0105572D01*
X0286313Y0105701D01*
X0286430Y0105827D01*
X0286550Y0105950D01*
X0286673Y0106070D01*
X0286799Y0106187D01*
X0286928Y0106300D01*
X0287059Y0106411D01*
X0287193Y0106518D01*
X0287330Y0106622D01*
X0287469Y0106723D01*
X0287611Y0106820D01*
X0287755Y0106914D01*
X0287901Y0107004D01*
X0288050Y0107091D01*
X0288200Y0107173D01*
X0288353Y0107253D01*
X0288507Y0107328D01*
X0288663Y0107399D01*
X0288821Y0107467D01*
X0288981Y0107531D01*
X0289142Y0107591D01*
X0289304Y0107647D01*
X0289468Y0107699D01*
X0289633Y0107746D01*
X0289799Y0107790D01*
X0289966Y0107830D01*
X0290134Y0107865D01*
X0290303Y0107897D01*
X0290473Y0107924D01*
X0290643Y0107947D01*
X0290814Y0107966D01*
X0290985Y0107981D01*
X0291157Y0107992D01*
X0291328Y0107998D01*
X0291500Y0108000D01*
X0291672Y0107998D01*
X0291843Y0107992D01*
X0292015Y0107981D01*
X0292186Y0107966D01*
X0292357Y0107947D01*
X0292527Y0107924D01*
X0292697Y0107897D01*
X0292866Y0107865D01*
X0293034Y0107830D01*
X0293201Y0107790D01*
X0293367Y0107746D01*
X0293532Y0107699D01*
X0293696Y0107647D01*
X0293858Y0107591D01*
X0294019Y0107531D01*
X0294179Y0107467D01*
X0294337Y0107399D01*
X0294493Y0107328D01*
X0294647Y0107253D01*
X0294800Y0107173D01*
X0294950Y0107091D01*
X0295099Y0107004D01*
X0295245Y0106914D01*
X0295389Y0106820D01*
X0295531Y0106723D01*
X0295670Y0106622D01*
X0295807Y0106518D01*
X0295941Y0106411D01*
X0296072Y0106300D01*
X0296201Y0106187D01*
X0296327Y0106070D01*
X0296450Y0105950D01*
X0296570Y0105827D01*
X0296687Y0105701D01*
X0296800Y0105572D01*
X0296911Y0105441D01*
X0297018Y0105307D01*
X0297122Y0105170D01*
X0297223Y0105031D01*
X0297320Y0104889D01*
X0297414Y0104745D01*
X0297504Y0104599D01*
X0297591Y0104450D01*
X0297673Y0104300D01*
X0297753Y0104147D01*
X0297828Y0103993D01*
X0297899Y0103837D01*
X0297967Y0103679D01*
X0298031Y0103519D01*
X0298091Y0103358D01*
X0298147Y0103196D01*
X0298199Y0103032D01*
X0298246Y0102867D01*
X0298290Y0102701D01*
X0298330Y0102534D01*
X0298365Y0102366D01*
X0298397Y0102197D01*
X0298424Y0102027D01*
X0298447Y0101857D01*
X0298466Y0101686D01*
X0298481Y0101515D01*
X0298492Y0101343D01*
X0298498Y0101172D01*
X0298500Y0101000D01*
X0298498Y0100828D01*
X0298492Y0100657D01*
X0298481Y0100485D01*
X0298466Y0100314D01*
X0298447Y0100143D01*
X0298424Y0099973D01*
X0298397Y0099803D01*
X0298365Y0099634D01*
X0298330Y0099466D01*
X0298290Y0099299D01*
X0298246Y0099133D01*
X0298199Y0098968D01*
X0298147Y0098804D01*
X0298091Y0098642D01*
X0298031Y0098481D01*
X0297967Y0098321D01*
X0297899Y0098163D01*
X0297828Y0098007D01*
X0297753Y0097853D01*
X0297673Y0097700D01*
X0297591Y0097550D01*
X0297504Y0097401D01*
X0297414Y0097255D01*
X0297320Y0097111D01*
X0297223Y0096969D01*
X0297122Y0096830D01*
X0297018Y0096693D01*
X0296911Y0096559D01*
X0296800Y0096428D01*
X0296687Y0096299D01*
X0296570Y0096173D01*
X0296450Y0096050D01*
X0296327Y0095930D01*
X0296201Y0095813D01*
X0296072Y0095700D01*
X0295941Y0095589D01*
X0295807Y0095482D01*
X0295670Y0095378D01*
X0295531Y0095277D01*
X0295389Y0095180D01*
X0295245Y0095086D01*
X0295099Y0094996D01*
X0294950Y0094909D01*
X0294800Y0094827D01*
X0294647Y0094747D01*
X0294493Y0094672D01*
X0294337Y0094601D01*
X0294179Y0094533D01*
X0294019Y0094469D01*
X0293858Y0094409D01*
X0293696Y0094353D01*
X0293532Y0094301D01*
X0293367Y0094254D01*
X0293201Y0094210D01*
X0293034Y0094170D01*
X0292866Y0094135D01*
X0292697Y0094103D01*
X0292527Y0094076D01*
X0292357Y0094053D01*
X0292186Y0094034D01*
X0292015Y0094019D01*
X0291843Y0094008D01*
X0291672Y0094002D01*
X0291500Y0094000D01*
X0291328Y0094002D01*
X0291157Y0094008D01*
X0290985Y0094019D01*
X0290814Y0094034D01*
X0290643Y0094053D01*
X0290473Y0094076D01*
X0290303Y0094103D01*
X0290134Y0094135D01*
X0289966Y0094170D01*
X0289799Y0094210D01*
X0289633Y0094254D01*
X0289468Y0094301D01*
X0289304Y0094353D01*
X0289142Y0094409D01*
X0288981Y0094469D01*
X0288821Y0094533D01*
X0288663Y0094601D01*
X0288507Y0094672D01*
X0288353Y0094747D01*
X0288200Y0094827D01*
X0288050Y0094909D01*
X0287901Y0094996D01*
X0287755Y0095086D01*
X0287611Y0095180D01*
X0287469Y0095277D01*
X0287330Y0095378D01*
X0287193Y0095482D01*
X0287059Y0095589D01*
X0286928Y0095700D01*
X0286799Y0095813D01*
X0286673Y0095930D01*
X0286550Y0096050D01*
X0286430Y0096173D01*
X0286313Y0096299D01*
X0286200Y0096428D01*
X0286089Y0096559D01*
X0285982Y0096693D01*
X0285878Y0096830D01*
X0285777Y0096969D01*
X0285680Y0097111D01*
X0285586Y0097255D01*
X0285496Y0097401D01*
X0285409Y0097550D01*
X0285327Y0097700D01*
X0285247Y0097853D01*
X0285172Y0098007D01*
X0285101Y0098163D01*
X0285033Y0098321D01*
X0284969Y0098481D01*
X0284909Y0098642D01*
X0284853Y0098804D01*
X0284801Y0098968D01*
X0284754Y0099133D01*
X0284710Y0099299D01*
X0284670Y0099466D01*
X0284635Y0099634D01*
X0284603Y0099803D01*
X0284576Y0099973D01*
X0284553Y0100143D01*
X0284534Y0100314D01*
X0284519Y0100485D01*
X0284508Y0100657D01*
X0284502Y0100828D01*
X0284500Y0101000D01*
X0303500Y0104929D02*
X0303500Y0097000D01*
X0300000Y0089000D02*
X0283000Y0089000D01*
X0310004Y0068717D02*
X0310004Y0033283D01*
X0322996Y0033283D01*
X0322996Y0068717D01*
X0310004Y0068717D01*
X0330004Y0078283D02*
X0330004Y0113717D01*
X0342996Y0113717D01*
X0342996Y0078283D01*
X0330004Y0078283D01*
X0360004Y0078283D02*
X0360004Y0113717D01*
X0372996Y0113717D01*
X0372996Y0078283D01*
X0360004Y0078283D01*
X0381500Y0077100D02*
X0382600Y0076000D01*
X0381500Y0077100D02*
X0381500Y0081000D01*
X0381500Y0084900D01*
X0382600Y0086000D01*
X0382500Y0081000D02*
X0381500Y0081000D01*
X0390000Y0081000D02*
X0393000Y0081000D01*
X0400500Y0081000D02*
X0401500Y0081000D01*
X0401500Y0084900D01*
X0400400Y0086000D01*
X0401500Y0081000D02*
X0401500Y0077100D01*
X0400400Y0076000D01*
X0352996Y0063717D02*
X0352996Y0028283D01*
X0340004Y0028283D01*
X0340004Y0063717D01*
X0352996Y0063717D01*
X0381500Y0049900D02*
X0382600Y0051000D01*
X0381500Y0049900D02*
X0381500Y0046000D01*
X0381500Y0042100D01*
X0382600Y0041000D01*
X0382500Y0046000D02*
X0381500Y0046000D01*
X0390000Y0046000D02*
X0393000Y0046000D01*
X0400500Y0046000D02*
X0401500Y0046000D01*
X0401500Y0049900D01*
X0400400Y0051000D01*
X0401500Y0046000D02*
X0401500Y0042100D01*
X0400400Y0041000D01*
X0400400Y0021000D02*
X0401500Y0019900D01*
X0401500Y0016000D01*
X0401500Y0012100D01*
X0400400Y0011000D01*
X0400500Y0016000D02*
X0401500Y0016000D01*
X0393000Y0016000D02*
X0390000Y0016000D01*
X0382500Y0016000D02*
X0381500Y0016000D01*
X0381500Y0012100D01*
X0382600Y0011000D01*
X0381500Y0016000D02*
X0381500Y0019900D01*
X0382600Y0021000D01*
X0292500Y0041000D02*
X0291500Y0041000D01*
X0291500Y0038000D01*
X0271500Y0038000D01*
X0271500Y0041000D01*
X0270500Y0041000D01*
X0271500Y0041000D02*
X0271500Y0044000D01*
X0291500Y0044000D01*
X0291500Y0041000D01*
X0381500Y0112100D02*
X0382600Y0111000D01*
X0381500Y0112100D02*
X0381500Y0116000D01*
X0381500Y0119900D01*
X0382600Y0121000D01*
X0382500Y0116000D02*
X0381500Y0116000D01*
X0390000Y0116000D02*
X0393000Y0116000D01*
X0400500Y0116000D02*
X0401500Y0116000D01*
X0401500Y0119900D01*
X0400400Y0121000D01*
X0401500Y0116000D02*
X0401500Y0112100D01*
X0400400Y0111000D01*
X0300000Y0113000D02*
X0283000Y0113000D01*
X0251500Y0113500D02*
X0251500Y0118500D01*
X0096224Y0033894D02*
X0096224Y0029894D01*
X0098224Y0031894D02*
X0094224Y0031894D01*
X0079000Y0031000D02*
X0074000Y0031000D01*
X0065000Y0026000D02*
X0065006Y0026528D01*
X0065026Y0027055D01*
X0065058Y0027582D01*
X0065104Y0028107D01*
X0065162Y0028632D01*
X0065233Y0029155D01*
X0065317Y0029676D01*
X0065413Y0030194D01*
X0065522Y0030711D01*
X0065644Y0031224D01*
X0065779Y0031734D01*
X0065926Y0032241D01*
X0066085Y0032744D01*
X0066257Y0033243D01*
X0066441Y0033738D01*
X0066637Y0034228D01*
X0066844Y0034713D01*
X0067064Y0035192D01*
X0067296Y0035667D01*
X0067539Y0036135D01*
X0067793Y0036597D01*
X0068059Y0037053D01*
X0068336Y0037502D01*
X0068623Y0037945D01*
X0068922Y0038380D01*
X0069231Y0038808D01*
X0069551Y0039227D01*
X0069880Y0039639D01*
X0070220Y0040043D01*
X0070570Y0040439D01*
X0070929Y0040825D01*
X0071297Y0041203D01*
X0071675Y0041571D01*
X0072061Y0041930D01*
X0072457Y0042280D01*
X0072861Y0042620D01*
X0073273Y0042949D01*
X0073692Y0043269D01*
X0074120Y0043578D01*
X0074555Y0043877D01*
X0074998Y0044164D01*
X0075447Y0044441D01*
X0075903Y0044707D01*
X0076365Y0044961D01*
X0076833Y0045204D01*
X0077308Y0045436D01*
X0077787Y0045656D01*
X0078272Y0045863D01*
X0078762Y0046059D01*
X0079257Y0046243D01*
X0079756Y0046415D01*
X0080259Y0046574D01*
X0080766Y0046721D01*
X0081276Y0046856D01*
X0081789Y0046978D01*
X0082306Y0047087D01*
X0082824Y0047183D01*
X0083345Y0047267D01*
X0083868Y0047338D01*
X0084393Y0047396D01*
X0084918Y0047442D01*
X0085445Y0047474D01*
X0085972Y0047494D01*
X0086500Y0047500D01*
X0087028Y0047494D01*
X0087555Y0047474D01*
X0088082Y0047442D01*
X0088607Y0047396D01*
X0089132Y0047338D01*
X0089655Y0047267D01*
X0090176Y0047183D01*
X0090694Y0047087D01*
X0091211Y0046978D01*
X0091724Y0046856D01*
X0092234Y0046721D01*
X0092741Y0046574D01*
X0093244Y0046415D01*
X0093743Y0046243D01*
X0094238Y0046059D01*
X0094728Y0045863D01*
X0095213Y0045656D01*
X0095692Y0045436D01*
X0096167Y0045204D01*
X0096635Y0044961D01*
X0097097Y0044707D01*
X0097553Y0044441D01*
X0098002Y0044164D01*
X0098445Y0043877D01*
X0098880Y0043578D01*
X0099308Y0043269D01*
X0099727Y0042949D01*
X0100139Y0042620D01*
X0100543Y0042280D01*
X0100939Y0041930D01*
X0101325Y0041571D01*
X0101703Y0041203D01*
X0102071Y0040825D01*
X0102430Y0040439D01*
X0102780Y0040043D01*
X0103120Y0039639D01*
X0103449Y0039227D01*
X0103769Y0038808D01*
X0104078Y0038380D01*
X0104377Y0037945D01*
X0104664Y0037502D01*
X0104941Y0037053D01*
X0105207Y0036597D01*
X0105461Y0036135D01*
X0105704Y0035667D01*
X0105936Y0035192D01*
X0106156Y0034713D01*
X0106363Y0034228D01*
X0106559Y0033738D01*
X0106743Y0033243D01*
X0106915Y0032744D01*
X0107074Y0032241D01*
X0107221Y0031734D01*
X0107356Y0031224D01*
X0107478Y0030711D01*
X0107587Y0030194D01*
X0107683Y0029676D01*
X0107767Y0029155D01*
X0107838Y0028632D01*
X0107896Y0028107D01*
X0107942Y0027582D01*
X0107974Y0027055D01*
X0107994Y0026528D01*
X0108000Y0026000D01*
X0107994Y0025472D01*
X0107974Y0024945D01*
X0107942Y0024418D01*
X0107896Y0023893D01*
X0107838Y0023368D01*
X0107767Y0022845D01*
X0107683Y0022324D01*
X0107587Y0021806D01*
X0107478Y0021289D01*
X0107356Y0020776D01*
X0107221Y0020266D01*
X0107074Y0019759D01*
X0106915Y0019256D01*
X0106743Y0018757D01*
X0106559Y0018262D01*
X0106363Y0017772D01*
X0106156Y0017287D01*
X0105936Y0016808D01*
X0105704Y0016333D01*
X0105461Y0015865D01*
X0105207Y0015403D01*
X0104941Y0014947D01*
X0104664Y0014498D01*
X0104377Y0014055D01*
X0104078Y0013620D01*
X0103769Y0013192D01*
X0103449Y0012773D01*
X0103120Y0012361D01*
X0102780Y0011957D01*
X0102430Y0011561D01*
X0102071Y0011175D01*
X0101703Y0010797D01*
X0101325Y0010429D01*
X0100939Y0010070D01*
X0100543Y0009720D01*
X0100139Y0009380D01*
X0099727Y0009051D01*
X0099308Y0008731D01*
X0098880Y0008422D01*
X0098445Y0008123D01*
X0098002Y0007836D01*
X0097553Y0007559D01*
X0097097Y0007293D01*
X0096635Y0007039D01*
X0096167Y0006796D01*
X0095692Y0006564D01*
X0095213Y0006344D01*
X0094728Y0006137D01*
X0094238Y0005941D01*
X0093743Y0005757D01*
X0093244Y0005585D01*
X0092741Y0005426D01*
X0092234Y0005279D01*
X0091724Y0005144D01*
X0091211Y0005022D01*
X0090694Y0004913D01*
X0090176Y0004817D01*
X0089655Y0004733D01*
X0089132Y0004662D01*
X0088607Y0004604D01*
X0088082Y0004558D01*
X0087555Y0004526D01*
X0087028Y0004506D01*
X0086500Y0004500D01*
X0085972Y0004506D01*
X0085445Y0004526D01*
X0084918Y0004558D01*
X0084393Y0004604D01*
X0083868Y0004662D01*
X0083345Y0004733D01*
X0082824Y0004817D01*
X0082306Y0004913D01*
X0081789Y0005022D01*
X0081276Y0005144D01*
X0080766Y0005279D01*
X0080259Y0005426D01*
X0079756Y0005585D01*
X0079257Y0005757D01*
X0078762Y0005941D01*
X0078272Y0006137D01*
X0077787Y0006344D01*
X0077308Y0006564D01*
X0076833Y0006796D01*
X0076365Y0007039D01*
X0075903Y0007293D01*
X0075447Y0007559D01*
X0074998Y0007836D01*
X0074555Y0008123D01*
X0074120Y0008422D01*
X0073692Y0008731D01*
X0073273Y0009051D01*
X0072861Y0009380D01*
X0072457Y0009720D01*
X0072061Y0010070D01*
X0071675Y0010429D01*
X0071297Y0010797D01*
X0070929Y0011175D01*
X0070570Y0011561D01*
X0070220Y0011957D01*
X0069880Y0012361D01*
X0069551Y0012773D01*
X0069231Y0013192D01*
X0068922Y0013620D01*
X0068623Y0014055D01*
X0068336Y0014498D01*
X0068059Y0014947D01*
X0067793Y0015403D01*
X0067539Y0015865D01*
X0067296Y0016333D01*
X0067064Y0016808D01*
X0066844Y0017287D01*
X0066637Y0017772D01*
X0066441Y0018262D01*
X0066257Y0018757D01*
X0066085Y0019256D01*
X0065926Y0019759D01*
X0065779Y0020266D01*
X0065644Y0020776D01*
X0065522Y0021289D01*
X0065413Y0021806D01*
X0065317Y0022324D01*
X0065233Y0022845D01*
X0065162Y0023368D01*
X0065104Y0023893D01*
X0065058Y0024418D01*
X0065026Y0024945D01*
X0065006Y0025472D01*
X0065000Y0026000D01*
D12*
X0030300Y0063700D02*
X0027965Y0063700D01*
X0026797Y0064868D01*
X0027965Y0066035D01*
X0030300Y0066035D01*
X0030300Y0067291D02*
X0030300Y0069626D01*
X0030300Y0068459D02*
X0026797Y0068459D01*
X0027965Y0067291D01*
X0028549Y0066035D02*
X0028549Y0063700D01*
X0028549Y0070882D02*
X0027965Y0072050D01*
X0027965Y0072634D01*
X0028549Y0073217D01*
X0029716Y0073217D01*
X0030300Y0072634D01*
X0030300Y0071466D01*
X0029716Y0070882D01*
X0028549Y0070882D02*
X0026797Y0070882D01*
X0026797Y0073217D01*
X0029716Y0075057D02*
X0030300Y0075057D01*
X0030300Y0075641D01*
X0029716Y0075641D01*
X0029716Y0075057D01*
X0030300Y0075641D02*
X0031468Y0074473D01*
X0030300Y0076867D02*
X0027965Y0079203D01*
X0027381Y0079203D01*
X0026797Y0078619D01*
X0026797Y0077451D01*
X0027381Y0076867D01*
X0030300Y0076867D02*
X0030300Y0079203D01*
X0030300Y0080458D02*
X0027965Y0080458D01*
X0027965Y0081042D01*
X0028549Y0081626D01*
X0027965Y0082210D01*
X0028549Y0082794D01*
X0030300Y0082794D01*
X0030300Y0081626D02*
X0028549Y0081626D01*
X0027965Y0084049D02*
X0027965Y0084633D01*
X0028549Y0085217D01*
X0027965Y0085801D01*
X0028549Y0086385D01*
X0030300Y0086385D01*
X0030300Y0085217D02*
X0028549Y0085217D01*
X0027965Y0084049D02*
X0030300Y0084049D01*
X0083696Y0116992D02*
X0085998Y0116992D01*
X0085231Y0118527D01*
X0085231Y0119294D01*
X0085998Y0120061D01*
X0087533Y0120061D01*
X0088300Y0119294D01*
X0088300Y0117759D01*
X0087533Y0116992D01*
X0083696Y0116992D02*
X0083696Y0120061D01*
X0083696Y0121596D02*
X0086765Y0121596D01*
X0088300Y0123131D01*
X0086765Y0124665D01*
X0083696Y0124665D01*
X0137888Y0104967D02*
X0138656Y0104200D01*
X0139423Y0104200D01*
X0140190Y0104967D01*
X0140190Y0108804D01*
X0139423Y0108804D02*
X0140957Y0108804D01*
X0142492Y0108804D02*
X0144794Y0108804D01*
X0145561Y0108037D01*
X0145561Y0106502D01*
X0144794Y0105735D01*
X0142492Y0105735D01*
X0142492Y0104200D02*
X0142492Y0108804D01*
X0147096Y0108037D02*
X0147863Y0108804D01*
X0149398Y0108804D01*
X0150165Y0108037D01*
X0150165Y0107269D01*
X0147096Y0104200D01*
X0150165Y0104200D01*
X0181385Y0111516D02*
X0182252Y0110649D01*
X0183987Y0110649D01*
X0184855Y0111516D01*
X0184855Y0115853D01*
X0186541Y0114986D02*
X0186541Y0114118D01*
X0187409Y0113251D01*
X0189144Y0113251D01*
X0190011Y0112384D01*
X0190011Y0111516D01*
X0189144Y0110649D01*
X0187409Y0110649D01*
X0186541Y0111516D01*
X0188276Y0109781D02*
X0188276Y0116721D01*
X0187409Y0115853D02*
X0189144Y0115853D01*
X0190011Y0114986D01*
X0191698Y0114118D02*
X0193433Y0115853D01*
X0193433Y0110649D01*
X0195167Y0110649D02*
X0191698Y0110649D01*
X0181385Y0111516D02*
X0181385Y0115853D01*
X0186541Y0114986D02*
X0187409Y0115853D01*
X0256400Y0099167D02*
X0257167Y0098400D01*
X0257935Y0098400D01*
X0258702Y0099167D01*
X0258702Y0103004D01*
X0257935Y0103004D02*
X0259469Y0103004D01*
X0261004Y0103004D02*
X0263306Y0103004D01*
X0264073Y0102237D01*
X0264073Y0100702D01*
X0263306Y0099935D01*
X0261004Y0099935D01*
X0261004Y0098400D02*
X0261004Y0103004D01*
X0265608Y0102237D02*
X0266375Y0103004D01*
X0267910Y0103004D01*
X0268677Y0102237D01*
X0268677Y0101469D01*
X0267910Y0100702D01*
X0268677Y0099935D01*
X0268677Y0099167D01*
X0267910Y0098400D01*
X0266375Y0098400D01*
X0265608Y0099167D01*
X0267142Y0100702D02*
X0267910Y0100702D01*
X0234649Y0066641D02*
X0232914Y0066641D01*
X0232047Y0065773D01*
X0234649Y0066641D02*
X0235516Y0065773D01*
X0235516Y0064906D01*
X0232047Y0061436D01*
X0235516Y0061436D01*
X0230360Y0061436D02*
X0226890Y0061436D01*
X0228625Y0061436D02*
X0228625Y0066641D01*
X0226890Y0064906D01*
X0220047Y0064038D02*
X0216578Y0064038D01*
X0209734Y0064038D02*
X0208867Y0063171D01*
X0206265Y0063171D01*
X0204578Y0063171D02*
X0204578Y0062304D01*
X0203711Y0061436D01*
X0201976Y0061436D01*
X0201108Y0062304D01*
X0199422Y0061436D02*
X0195952Y0061436D01*
X0195952Y0066641D01*
X0199422Y0066641D01*
X0201108Y0065773D02*
X0201108Y0064906D01*
X0201976Y0064038D01*
X0203711Y0064038D01*
X0204578Y0063171D01*
X0206265Y0061436D02*
X0206265Y0066641D01*
X0208867Y0066641D01*
X0209734Y0065773D01*
X0209734Y0064038D01*
X0204578Y0065773D02*
X0203711Y0066641D01*
X0201976Y0066641D01*
X0201108Y0065773D01*
X0197687Y0064038D02*
X0195952Y0064038D01*
X0392492Y0069967D02*
X0393259Y0069200D01*
X0394794Y0069200D01*
X0395561Y0069967D01*
X0395561Y0070735D01*
X0394794Y0071502D01*
X0393259Y0071502D01*
X0392492Y0072269D01*
X0392492Y0073037D01*
X0393259Y0073804D01*
X0394794Y0073804D01*
X0395561Y0073037D01*
X0397096Y0073037D02*
X0397863Y0073804D01*
X0399398Y0073804D01*
X0400165Y0073037D01*
X0400165Y0072269D01*
X0399398Y0071502D01*
X0400165Y0070735D01*
X0400165Y0069967D01*
X0399398Y0069200D01*
X0397863Y0069200D01*
X0397096Y0069967D01*
X0398631Y0071502D02*
X0399398Y0071502D01*
X0399398Y0104200D02*
X0399398Y0108804D01*
X0397096Y0106502D01*
X0400165Y0106502D01*
X0395561Y0105735D02*
X0395561Y0104967D01*
X0394794Y0104200D01*
X0393259Y0104200D01*
X0392492Y0104967D01*
X0393259Y0106502D02*
X0394794Y0106502D01*
X0395561Y0105735D01*
X0393259Y0106502D02*
X0392492Y0107269D01*
X0392492Y0108037D01*
X0393259Y0108804D01*
X0394794Y0108804D01*
X0395561Y0108037D01*
X0394794Y0038804D02*
X0393259Y0038804D01*
X0392492Y0038037D01*
X0392492Y0037269D01*
X0393259Y0036502D01*
X0394794Y0036502D01*
X0395561Y0035735D01*
X0395561Y0034967D01*
X0394794Y0034200D01*
X0393259Y0034200D01*
X0392492Y0034967D01*
X0395561Y0038037D02*
X0394794Y0038804D01*
X0397096Y0038037D02*
X0397863Y0038804D01*
X0399398Y0038804D01*
X0400165Y0038037D01*
X0400165Y0037269D01*
X0397096Y0034200D01*
X0400165Y0034200D01*
X0400165Y0008804D02*
X0397096Y0008804D01*
X0397096Y0006502D01*
X0398631Y0007269D01*
X0399398Y0007269D01*
X0400165Y0006502D01*
X0400165Y0004967D01*
X0399398Y0004200D01*
X0397863Y0004200D01*
X0397096Y0004967D01*
X0395561Y0004967D02*
X0394794Y0004200D01*
X0393259Y0004200D01*
X0392492Y0004967D01*
X0393259Y0006502D02*
X0394794Y0006502D01*
X0395561Y0005735D01*
X0395561Y0004967D01*
X0393259Y0006502D02*
X0392492Y0007269D01*
X0392492Y0008037D01*
X0393259Y0008804D01*
X0394794Y0008804D01*
X0395561Y0008037D01*
D13*
X0274024Y0046300D02*
X0273774Y0046050D01*
X0273273Y0046050D01*
X0273023Y0046300D01*
X0273023Y0046801D02*
X0273524Y0047051D01*
X0273774Y0047051D01*
X0274024Y0046801D01*
X0274024Y0046300D01*
X0273023Y0046801D02*
X0273023Y0047551D01*
X0274024Y0047551D01*
X0272551Y0047301D02*
X0272551Y0046801D01*
X0272301Y0046550D01*
X0271550Y0046550D01*
X0271550Y0046050D02*
X0271550Y0047551D01*
X0272301Y0047551D01*
X0272551Y0047301D01*
X0272050Y0046550D02*
X0272551Y0046050D01*
X0271549Y0017551D02*
X0271549Y0018451D01*
X0271550Y0018450D02*
X0271734Y0018454D01*
X0271919Y0018462D01*
X0272103Y0018474D01*
X0272286Y0018491D01*
X0272470Y0018513D01*
X0272652Y0018538D01*
X0272834Y0018569D01*
X0273015Y0018604D01*
X0273196Y0018643D01*
X0273375Y0018687D01*
X0273553Y0018735D01*
X0273730Y0018787D01*
X0273906Y0018844D01*
X0274080Y0018904D01*
X0274252Y0018970D01*
X0274423Y0019039D01*
X0274593Y0019112D01*
X0274760Y0019190D01*
X0274925Y0019272D01*
X0275089Y0019357D01*
X0275250Y0019447D01*
X0275409Y0019541D01*
X0275566Y0019638D01*
X0275720Y0019739D01*
X0275872Y0019844D01*
X0276021Y0019953D01*
X0276167Y0020065D01*
X0276311Y0020181D01*
X0276451Y0020300D01*
X0276589Y0020423D01*
X0276724Y0020549D01*
X0276856Y0020678D01*
X0276984Y0020811D01*
X0277109Y0020946D01*
X0277231Y0021085D01*
X0277918Y0020504D01*
X0277782Y0020348D01*
X0277641Y0020196D01*
X0277497Y0020047D01*
X0277350Y0019902D01*
X0277199Y0019761D01*
X0277045Y0019624D01*
X0276887Y0019490D01*
X0276726Y0019360D01*
X0276562Y0019234D01*
X0276395Y0019112D01*
X0276225Y0018994D01*
X0276052Y0018881D01*
X0275876Y0018772D01*
X0275698Y0018667D01*
X0275517Y0018566D01*
X0275334Y0018470D01*
X0275149Y0018378D01*
X0274961Y0018291D01*
X0274771Y0018209D01*
X0274580Y0018131D01*
X0274386Y0018058D01*
X0274191Y0017990D01*
X0273994Y0017926D01*
X0273796Y0017868D01*
X0273596Y0017814D01*
X0273395Y0017765D01*
X0273193Y0017721D01*
X0272990Y0017682D01*
X0272786Y0017648D01*
X0272581Y0017619D01*
X0272376Y0017595D01*
X0272170Y0017577D01*
X0271963Y0017563D01*
X0271757Y0017554D01*
X0271550Y0017550D01*
X0271550Y0017644D01*
X0271754Y0017648D01*
X0271959Y0017657D01*
X0272163Y0017670D01*
X0272366Y0017689D01*
X0272569Y0017713D01*
X0272772Y0017741D01*
X0272974Y0017775D01*
X0273174Y0017813D01*
X0273374Y0017857D01*
X0273573Y0017905D01*
X0273770Y0017958D01*
X0273967Y0018016D01*
X0274161Y0018079D01*
X0274354Y0018147D01*
X0274546Y0018219D01*
X0274735Y0018296D01*
X0274923Y0018377D01*
X0275108Y0018463D01*
X0275291Y0018554D01*
X0275473Y0018649D01*
X0275651Y0018748D01*
X0275827Y0018852D01*
X0276001Y0018960D01*
X0276172Y0019072D01*
X0276340Y0019189D01*
X0276505Y0019309D01*
X0276668Y0019434D01*
X0276827Y0019562D01*
X0276983Y0019694D01*
X0277135Y0019830D01*
X0277285Y0019970D01*
X0277430Y0020113D01*
X0277573Y0020260D01*
X0277711Y0020411D01*
X0277846Y0020564D01*
X0277775Y0020625D01*
X0277641Y0020473D01*
X0277504Y0020324D01*
X0277363Y0020179D01*
X0277219Y0020038D01*
X0277072Y0019899D01*
X0276921Y0019765D01*
X0276767Y0019634D01*
X0276609Y0019507D01*
X0276449Y0019384D01*
X0276285Y0019265D01*
X0276119Y0019150D01*
X0275950Y0019039D01*
X0275779Y0018932D01*
X0275604Y0018830D01*
X0275428Y0018731D01*
X0275249Y0018637D01*
X0275067Y0018548D01*
X0274884Y0018463D01*
X0274699Y0018382D01*
X0274511Y0018306D01*
X0274322Y0018235D01*
X0274131Y0018168D01*
X0273939Y0018106D01*
X0273745Y0018049D01*
X0273550Y0017996D01*
X0273353Y0017949D01*
X0273156Y0017906D01*
X0272957Y0017868D01*
X0272758Y0017834D01*
X0272558Y0017806D01*
X0272357Y0017783D01*
X0272156Y0017764D01*
X0271954Y0017750D01*
X0271752Y0017742D01*
X0271550Y0017738D01*
X0271550Y0017832D01*
X0271750Y0017836D01*
X0271949Y0017844D01*
X0272149Y0017858D01*
X0272348Y0017876D01*
X0272546Y0017899D01*
X0272744Y0017927D01*
X0272941Y0017960D01*
X0273137Y0017998D01*
X0273333Y0018040D01*
X0273527Y0018087D01*
X0273720Y0018139D01*
X0273911Y0018196D01*
X0274102Y0018257D01*
X0274290Y0018323D01*
X0274477Y0018394D01*
X0274662Y0018469D01*
X0274846Y0018549D01*
X0275027Y0018633D01*
X0275206Y0018721D01*
X0275383Y0018814D01*
X0275558Y0018911D01*
X0275730Y0019013D01*
X0275899Y0019118D01*
X0276067Y0019228D01*
X0276231Y0019342D01*
X0276392Y0019459D01*
X0276551Y0019581D01*
X0276706Y0019706D01*
X0276859Y0019836D01*
X0277008Y0019969D01*
X0277154Y0020105D01*
X0277296Y0020245D01*
X0277435Y0020389D01*
X0277571Y0020536D01*
X0277703Y0020686D01*
X0277631Y0020746D01*
X0277501Y0020598D01*
X0277367Y0020453D01*
X0277229Y0020311D01*
X0277088Y0020173D01*
X0276944Y0020038D01*
X0276797Y0019906D01*
X0276646Y0019779D01*
X0276492Y0019655D01*
X0276336Y0019534D01*
X0276176Y0019418D01*
X0276014Y0019306D01*
X0275849Y0019197D01*
X0275681Y0019093D01*
X0275511Y0018993D01*
X0275338Y0018897D01*
X0275163Y0018805D01*
X0274986Y0018717D01*
X0274807Y0018634D01*
X0274626Y0018556D01*
X0274443Y0018481D01*
X0274258Y0018412D01*
X0274072Y0018347D01*
X0273884Y0018286D01*
X0273694Y0018230D01*
X0273504Y0018179D01*
X0273312Y0018132D01*
X0273119Y0018090D01*
X0272925Y0018053D01*
X0272730Y0018020D01*
X0272534Y0017993D01*
X0272338Y0017970D01*
X0272142Y0017952D01*
X0271945Y0017938D01*
X0271747Y0017930D01*
X0271550Y0017926D01*
X0271550Y0018020D01*
X0271745Y0018024D01*
X0271940Y0018032D01*
X0272135Y0018045D01*
X0272329Y0018063D01*
X0272523Y0018086D01*
X0272716Y0018113D01*
X0272909Y0018145D01*
X0273100Y0018182D01*
X0273291Y0018224D01*
X0273481Y0018270D01*
X0273669Y0018320D01*
X0273856Y0018376D01*
X0274042Y0018436D01*
X0274226Y0018500D01*
X0274409Y0018569D01*
X0274590Y0018642D01*
X0274769Y0018720D01*
X0274946Y0018802D01*
X0275121Y0018889D01*
X0275293Y0018979D01*
X0275464Y0019074D01*
X0275632Y0019173D01*
X0275798Y0019276D01*
X0275961Y0019383D01*
X0276122Y0019494D01*
X0276279Y0019609D01*
X0276434Y0019728D01*
X0276586Y0019851D01*
X0276735Y0019977D01*
X0276881Y0020107D01*
X0277023Y0020240D01*
X0277162Y0020377D01*
X0277298Y0020517D01*
X0277430Y0020661D01*
X0277559Y0020807D01*
X0277487Y0020868D01*
X0277360Y0020723D01*
X0277229Y0020581D01*
X0277095Y0020443D01*
X0276958Y0020308D01*
X0276817Y0020176D01*
X0276673Y0020048D01*
X0276526Y0019923D01*
X0276376Y0019802D01*
X0276223Y0019685D01*
X0276067Y0019571D01*
X0275908Y0019461D01*
X0275747Y0019355D01*
X0275583Y0019254D01*
X0275417Y0019156D01*
X0275249Y0019062D01*
X0275078Y0018972D01*
X0274905Y0018887D01*
X0274730Y0018806D01*
X0274553Y0018729D01*
X0274375Y0018657D01*
X0274194Y0018588D01*
X0274012Y0018525D01*
X0273829Y0018466D01*
X0273644Y0018411D01*
X0273458Y0018361D01*
X0273270Y0018315D01*
X0273082Y0018274D01*
X0272892Y0018238D01*
X0272702Y0018206D01*
X0272511Y0018179D01*
X0272320Y0018157D01*
X0272128Y0018139D01*
X0271935Y0018126D01*
X0271743Y0018118D01*
X0271550Y0018114D01*
X0271550Y0018208D01*
X0271740Y0018212D01*
X0271931Y0018220D01*
X0272121Y0018233D01*
X0272310Y0018250D01*
X0272500Y0018272D01*
X0272688Y0018299D01*
X0272876Y0018330D01*
X0273063Y0018366D01*
X0273249Y0018407D01*
X0273434Y0018452D01*
X0273618Y0018501D01*
X0273801Y0018556D01*
X0273982Y0018614D01*
X0274162Y0018677D01*
X0274340Y0018744D01*
X0274517Y0018816D01*
X0274692Y0018892D01*
X0274864Y0018972D01*
X0275035Y0019056D01*
X0275204Y0019145D01*
X0275370Y0019237D01*
X0275535Y0019334D01*
X0275696Y0019434D01*
X0275856Y0019539D01*
X0276012Y0019647D01*
X0276166Y0019760D01*
X0276317Y0019876D01*
X0276466Y0019995D01*
X0276611Y0020118D01*
X0276753Y0020245D01*
X0276892Y0020375D01*
X0277028Y0020509D01*
X0277161Y0020645D01*
X0277290Y0020785D01*
X0277416Y0020929D01*
X0277344Y0020989D01*
X0277220Y0020848D01*
X0277092Y0020710D01*
X0276961Y0020575D01*
X0276827Y0020443D01*
X0276690Y0020314D01*
X0276549Y0020189D01*
X0276405Y0020067D01*
X0276259Y0019949D01*
X0276110Y0019835D01*
X0275958Y0019724D01*
X0275803Y0019617D01*
X0275646Y0019514D01*
X0275486Y0019414D01*
X0275324Y0019319D01*
X0275159Y0019227D01*
X0274993Y0019140D01*
X0274824Y0019057D01*
X0274653Y0018977D01*
X0274481Y0018902D01*
X0274306Y0018832D01*
X0274130Y0018765D01*
X0273953Y0018703D01*
X0273773Y0018645D01*
X0273593Y0018592D01*
X0273411Y0018543D01*
X0273229Y0018499D01*
X0273045Y0018459D01*
X0272860Y0018423D01*
X0272674Y0018392D01*
X0272488Y0018366D01*
X0272301Y0018344D01*
X0272114Y0018327D01*
X0271926Y0018314D01*
X0271738Y0018306D01*
X0271550Y0018302D01*
X0271550Y0018396D01*
X0271736Y0018400D01*
X0271921Y0018408D01*
X0272107Y0018420D01*
X0272292Y0018437D01*
X0272476Y0018459D01*
X0272660Y0018485D01*
X0272844Y0018516D01*
X0273026Y0018551D01*
X0273208Y0018590D01*
X0273388Y0018634D01*
X0273568Y0018683D01*
X0273746Y0018735D01*
X0273923Y0018792D01*
X0274098Y0018854D01*
X0274272Y0018919D01*
X0274444Y0018989D01*
X0274615Y0019063D01*
X0274783Y0019141D01*
X0274950Y0019224D01*
X0275114Y0019310D01*
X0275277Y0019400D01*
X0275437Y0019495D01*
X0275595Y0019593D01*
X0275750Y0019695D01*
X0275903Y0019800D01*
X0276053Y0019910D01*
X0276201Y0020023D01*
X0276345Y0020140D01*
X0276487Y0020260D01*
X0276626Y0020383D01*
X0276762Y0020510D01*
X0276894Y0020640D01*
X0277023Y0020774D01*
X0277150Y0020910D01*
X0277272Y0021050D01*
X0271450Y0034449D02*
X0271450Y0033549D01*
X0271450Y0033550D02*
X0271267Y0033546D01*
X0271084Y0033539D01*
X0270901Y0033526D01*
X0270718Y0033509D01*
X0270536Y0033488D01*
X0270355Y0033463D01*
X0270174Y0033433D01*
X0269994Y0033398D01*
X0269815Y0033360D01*
X0269637Y0033317D01*
X0269460Y0033269D01*
X0269285Y0033218D01*
X0269110Y0033162D01*
X0268937Y0033102D01*
X0268766Y0033037D01*
X0268596Y0032969D01*
X0268427Y0032897D01*
X0268261Y0032820D01*
X0268097Y0032739D01*
X0267934Y0032655D01*
X0267774Y0032566D01*
X0267615Y0032474D01*
X0267459Y0032378D01*
X0267306Y0032278D01*
X0267155Y0032174D01*
X0267006Y0032067D01*
X0266860Y0031956D01*
X0266717Y0031842D01*
X0266577Y0031724D01*
X0266440Y0031603D01*
X0266305Y0031479D01*
X0266174Y0031351D01*
X0266045Y0031220D01*
X0265920Y0031086D01*
X0265799Y0030950D01*
X0265680Y0030810D01*
X0265565Y0030667D01*
X0265454Y0030522D01*
X0265346Y0030374D01*
X0265242Y0030223D01*
X0265141Y0030070D01*
X0265044Y0029915D01*
X0264951Y0029757D01*
X0264862Y0029597D01*
X0264068Y0030020D01*
X0264168Y0030200D01*
X0264272Y0030377D01*
X0264380Y0030551D01*
X0264493Y0030723D01*
X0264610Y0030891D01*
X0264731Y0031057D01*
X0264855Y0031220D01*
X0264984Y0031380D01*
X0265117Y0031537D01*
X0265253Y0031690D01*
X0265393Y0031840D01*
X0265537Y0031987D01*
X0265684Y0032130D01*
X0265835Y0032270D01*
X0265989Y0032405D01*
X0266146Y0032537D01*
X0266306Y0032665D01*
X0266470Y0032790D01*
X0266636Y0032910D01*
X0266806Y0033026D01*
X0266978Y0033138D01*
X0267152Y0033246D01*
X0267330Y0033349D01*
X0267509Y0033448D01*
X0267692Y0033543D01*
X0267876Y0033633D01*
X0268062Y0033719D01*
X0268251Y0033800D01*
X0268441Y0033877D01*
X0268634Y0033949D01*
X0268828Y0034016D01*
X0269023Y0034079D01*
X0269220Y0034137D01*
X0269418Y0034190D01*
X0269618Y0034238D01*
X0269819Y0034281D01*
X0270020Y0034319D01*
X0270223Y0034353D01*
X0270426Y0034381D01*
X0270630Y0034405D01*
X0270835Y0034424D01*
X0271039Y0034437D01*
X0271244Y0034446D01*
X0271450Y0034450D01*
X0271450Y0034356D01*
X0271247Y0034352D01*
X0271044Y0034344D01*
X0270841Y0034330D01*
X0270639Y0034312D01*
X0270438Y0034288D01*
X0270237Y0034260D01*
X0270036Y0034227D01*
X0269837Y0034189D01*
X0269639Y0034146D01*
X0269441Y0034098D01*
X0269245Y0034046D01*
X0269050Y0033989D01*
X0268857Y0033927D01*
X0268665Y0033860D01*
X0268475Y0033789D01*
X0268287Y0033714D01*
X0268101Y0033633D01*
X0267916Y0033548D01*
X0267734Y0033459D01*
X0267554Y0033365D01*
X0267376Y0033267D01*
X0267201Y0033165D01*
X0267028Y0033059D01*
X0266858Y0032948D01*
X0266690Y0032833D01*
X0266526Y0032714D01*
X0266364Y0032591D01*
X0266206Y0032465D01*
X0266050Y0032334D01*
X0265898Y0032200D01*
X0265749Y0032062D01*
X0265603Y0031921D01*
X0265461Y0031776D01*
X0265323Y0031627D01*
X0265188Y0031476D01*
X0265057Y0031321D01*
X0264930Y0031163D01*
X0264806Y0031001D01*
X0264687Y0030837D01*
X0264571Y0030670D01*
X0264460Y0030501D01*
X0264352Y0030328D01*
X0264249Y0030153D01*
X0264151Y0029976D01*
X0264234Y0029932D01*
X0264331Y0030107D01*
X0264433Y0030280D01*
X0264539Y0030450D01*
X0264649Y0030618D01*
X0264763Y0030783D01*
X0264882Y0030945D01*
X0265004Y0031105D01*
X0265130Y0031261D01*
X0265259Y0031414D01*
X0265393Y0031564D01*
X0265529Y0031711D01*
X0265670Y0031854D01*
X0265814Y0031994D01*
X0265961Y0032130D01*
X0266112Y0032263D01*
X0266265Y0032392D01*
X0266422Y0032517D01*
X0266582Y0032639D01*
X0266745Y0032756D01*
X0266910Y0032870D01*
X0267078Y0032979D01*
X0267249Y0033085D01*
X0267422Y0033186D01*
X0267598Y0033283D01*
X0267776Y0033375D01*
X0267956Y0033463D01*
X0268139Y0033547D01*
X0268323Y0033627D01*
X0268509Y0033702D01*
X0268697Y0033772D01*
X0268887Y0033838D01*
X0269078Y0033899D01*
X0269270Y0033955D01*
X0269464Y0034007D01*
X0269659Y0034054D01*
X0269855Y0034097D01*
X0270053Y0034134D01*
X0270251Y0034167D01*
X0270449Y0034195D01*
X0270649Y0034218D01*
X0270848Y0034236D01*
X0271049Y0034250D01*
X0271249Y0034258D01*
X0271450Y0034262D01*
X0271450Y0034168D01*
X0271251Y0034164D01*
X0271053Y0034156D01*
X0270855Y0034143D01*
X0270658Y0034124D01*
X0270461Y0034102D01*
X0270264Y0034074D01*
X0270069Y0034042D01*
X0269874Y0034004D01*
X0269680Y0033963D01*
X0269487Y0033916D01*
X0269295Y0033865D01*
X0269105Y0033809D01*
X0268916Y0033749D01*
X0268729Y0033684D01*
X0268543Y0033614D01*
X0268359Y0033540D01*
X0268177Y0033461D01*
X0267997Y0033378D01*
X0267818Y0033291D01*
X0267642Y0033200D01*
X0267469Y0033104D01*
X0267297Y0033004D01*
X0267129Y0032900D01*
X0266962Y0032792D01*
X0266799Y0032679D01*
X0266638Y0032563D01*
X0266480Y0032443D01*
X0266325Y0032319D01*
X0266173Y0032192D01*
X0266024Y0032061D01*
X0265879Y0031926D01*
X0265736Y0031788D01*
X0265598Y0031646D01*
X0265462Y0031501D01*
X0265330Y0031353D01*
X0265202Y0031201D01*
X0265078Y0031047D01*
X0264957Y0030890D01*
X0264840Y0030729D01*
X0264727Y0030566D01*
X0264619Y0030400D01*
X0264514Y0030232D01*
X0264413Y0030061D01*
X0264317Y0029888D01*
X0264399Y0029843D01*
X0264495Y0030015D01*
X0264594Y0030184D01*
X0264698Y0030350D01*
X0264806Y0030514D01*
X0264917Y0030675D01*
X0265033Y0030834D01*
X0265152Y0030989D01*
X0265275Y0031142D01*
X0265402Y0031291D01*
X0265532Y0031438D01*
X0265666Y0031581D01*
X0265803Y0031721D01*
X0265944Y0031858D01*
X0266087Y0031991D01*
X0266234Y0032121D01*
X0266385Y0032247D01*
X0266538Y0032369D01*
X0266694Y0032488D01*
X0266853Y0032603D01*
X0267015Y0032713D01*
X0267179Y0032820D01*
X0267346Y0032923D01*
X0267515Y0033022D01*
X0267687Y0033117D01*
X0267861Y0033207D01*
X0268037Y0033294D01*
X0268215Y0033375D01*
X0268395Y0033453D01*
X0268577Y0033526D01*
X0268760Y0033595D01*
X0268946Y0033659D01*
X0269132Y0033719D01*
X0269320Y0033774D01*
X0269510Y0033825D01*
X0269700Y0033871D01*
X0269892Y0033912D01*
X0270085Y0033949D01*
X0270278Y0033981D01*
X0270472Y0034008D01*
X0270667Y0034031D01*
X0270862Y0034049D01*
X0271058Y0034062D01*
X0271254Y0034070D01*
X0271450Y0034074D01*
X0271450Y0033980D01*
X0271256Y0033976D01*
X0271062Y0033968D01*
X0270869Y0033955D01*
X0270676Y0033937D01*
X0270484Y0033915D01*
X0270292Y0033888D01*
X0270101Y0033856D01*
X0269910Y0033820D01*
X0269721Y0033779D01*
X0269533Y0033734D01*
X0269346Y0033684D01*
X0269160Y0033629D01*
X0268975Y0033570D01*
X0268792Y0033507D01*
X0268611Y0033439D01*
X0268431Y0033366D01*
X0268253Y0033290D01*
X0268077Y0033209D01*
X0267903Y0033123D01*
X0267731Y0033034D01*
X0267561Y0032940D01*
X0267394Y0032843D01*
X0267229Y0032741D01*
X0267067Y0032635D01*
X0266907Y0032526D01*
X0266750Y0032412D01*
X0266596Y0032295D01*
X0266444Y0032174D01*
X0266296Y0032050D01*
X0266151Y0031922D01*
X0266008Y0031790D01*
X0265869Y0031655D01*
X0265734Y0031517D01*
X0265602Y0031375D01*
X0265473Y0031230D01*
X0265348Y0031082D01*
X0265226Y0030931D01*
X0265108Y0030778D01*
X0264994Y0030621D01*
X0264884Y0030462D01*
X0264778Y0030300D01*
X0264675Y0030135D01*
X0264577Y0029968D01*
X0264482Y0029799D01*
X0264565Y0029755D01*
X0264659Y0029922D01*
X0264756Y0030087D01*
X0264857Y0030250D01*
X0264962Y0030410D01*
X0265071Y0030567D01*
X0265184Y0030722D01*
X0265300Y0030874D01*
X0265420Y0031023D01*
X0265544Y0031169D01*
X0265671Y0031312D01*
X0265802Y0031452D01*
X0265936Y0031588D01*
X0266073Y0031722D01*
X0266214Y0031852D01*
X0266357Y0031979D01*
X0266504Y0032102D01*
X0266654Y0032221D01*
X0266806Y0032337D01*
X0266961Y0032449D01*
X0267119Y0032557D01*
X0267280Y0032662D01*
X0267443Y0032762D01*
X0267608Y0032859D01*
X0267775Y0032951D01*
X0267945Y0033039D01*
X0268117Y0033124D01*
X0268291Y0033204D01*
X0268467Y0033279D01*
X0268645Y0033351D01*
X0268824Y0033418D01*
X0269005Y0033481D01*
X0269187Y0033539D01*
X0269371Y0033593D01*
X0269556Y0033643D01*
X0269742Y0033687D01*
X0269929Y0033728D01*
X0270117Y0033764D01*
X0270306Y0033795D01*
X0270495Y0033822D01*
X0270685Y0033844D01*
X0270876Y0033861D01*
X0271067Y0033874D01*
X0271258Y0033882D01*
X0271450Y0033886D01*
X0271450Y0033792D01*
X0271261Y0033788D01*
X0271072Y0033780D01*
X0270883Y0033768D01*
X0270695Y0033750D01*
X0270507Y0033728D01*
X0270320Y0033702D01*
X0270133Y0033671D01*
X0269947Y0033636D01*
X0269762Y0033596D01*
X0269578Y0033551D01*
X0269396Y0033502D01*
X0269214Y0033449D01*
X0269034Y0033392D01*
X0268856Y0033330D01*
X0268678Y0033263D01*
X0268503Y0033193D01*
X0268329Y0033118D01*
X0268157Y0033039D01*
X0267988Y0032955D01*
X0267820Y0032868D01*
X0267654Y0032777D01*
X0267491Y0032681D01*
X0267330Y0032582D01*
X0267171Y0032479D01*
X0267015Y0032372D01*
X0266862Y0032261D01*
X0266711Y0032147D01*
X0266564Y0032029D01*
X0266419Y0031907D01*
X0266277Y0031782D01*
X0266138Y0031654D01*
X0266003Y0031522D01*
X0265870Y0031387D01*
X0265741Y0031249D01*
X0265615Y0031107D01*
X0265493Y0030963D01*
X0265374Y0030816D01*
X0265259Y0030666D01*
X0265148Y0030513D01*
X0265040Y0030357D01*
X0264936Y0030199D01*
X0264836Y0030039D01*
X0264740Y0029876D01*
X0264648Y0029711D01*
X0264731Y0029666D01*
X0264822Y0029830D01*
X0264917Y0029991D01*
X0265016Y0030149D01*
X0265118Y0030305D01*
X0265225Y0030459D01*
X0265335Y0030610D01*
X0265449Y0030758D01*
X0265566Y0030904D01*
X0265687Y0031046D01*
X0265811Y0031186D01*
X0265938Y0031322D01*
X0266069Y0031456D01*
X0266203Y0031586D01*
X0266340Y0031713D01*
X0266480Y0031836D01*
X0266623Y0031956D01*
X0266769Y0032073D01*
X0266918Y0032186D01*
X0267070Y0032295D01*
X0267224Y0032401D01*
X0267380Y0032503D01*
X0267539Y0032601D01*
X0267701Y0032695D01*
X0267864Y0032785D01*
X0268030Y0032872D01*
X0268198Y0032954D01*
X0268367Y0033032D01*
X0268539Y0033106D01*
X0268712Y0033175D01*
X0268887Y0033241D01*
X0269064Y0033302D01*
X0269242Y0033359D01*
X0269421Y0033412D01*
X0269601Y0033460D01*
X0269783Y0033504D01*
X0269966Y0033544D01*
X0270149Y0033579D01*
X0270333Y0033609D01*
X0270518Y0033635D01*
X0270704Y0033657D01*
X0270890Y0033674D01*
X0271076Y0033686D01*
X0271263Y0033694D01*
X0271450Y0033698D01*
X0271450Y0033604D01*
X0271265Y0033600D01*
X0271081Y0033592D01*
X0270897Y0033580D01*
X0270713Y0033563D01*
X0270530Y0033542D01*
X0270347Y0033516D01*
X0270165Y0033486D01*
X0269984Y0033451D01*
X0269804Y0033412D01*
X0269624Y0033369D01*
X0269446Y0033321D01*
X0269269Y0033269D01*
X0269093Y0033213D01*
X0268919Y0033153D01*
X0268746Y0033088D01*
X0268575Y0033019D01*
X0268406Y0032946D01*
X0268238Y0032869D01*
X0268072Y0032788D01*
X0267909Y0032702D01*
X0267747Y0032613D01*
X0267588Y0032520D01*
X0267431Y0032423D01*
X0267276Y0032323D01*
X0267124Y0032218D01*
X0266974Y0032110D01*
X0266827Y0031999D01*
X0266683Y0031884D01*
X0266542Y0031765D01*
X0266403Y0031643D01*
X0266268Y0031518D01*
X0266136Y0031389D01*
X0266006Y0031257D01*
X0265880Y0031123D01*
X0265758Y0030985D01*
X0265639Y0030844D01*
X0265523Y0030700D01*
X0265410Y0030554D01*
X0265302Y0030405D01*
X0265197Y0030253D01*
X0265095Y0030099D01*
X0264998Y0029942D01*
X0264904Y0029783D01*
X0264814Y0029622D01*
X0264189Y0021765D02*
X0264970Y0022211D01*
X0265063Y0022054D01*
X0265160Y0021900D01*
X0265261Y0021748D01*
X0265366Y0021599D01*
X0265474Y0021452D01*
X0265585Y0021307D01*
X0265700Y0021166D01*
X0265819Y0021027D01*
X0265941Y0020892D01*
X0266066Y0020759D01*
X0266194Y0020629D01*
X0266325Y0020503D01*
X0266459Y0020379D01*
X0266596Y0020259D01*
X0266736Y0020142D01*
X0266879Y0020029D01*
X0267025Y0019919D01*
X0267173Y0019813D01*
X0267324Y0019710D01*
X0267477Y0019611D01*
X0267632Y0019516D01*
X0267790Y0019425D01*
X0267950Y0019337D01*
X0268112Y0019253D01*
X0268275Y0019173D01*
X0268441Y0019097D01*
X0268609Y0019026D01*
X0268778Y0018958D01*
X0268949Y0018894D01*
X0269121Y0018835D01*
X0269295Y0018779D01*
X0269470Y0018728D01*
X0269646Y0018681D01*
X0269823Y0018639D01*
X0270002Y0018600D01*
X0270181Y0018566D01*
X0270361Y0018536D01*
X0270541Y0018511D01*
X0270722Y0018490D01*
X0270904Y0018474D01*
X0271086Y0018461D01*
X0271268Y0018454D01*
X0271450Y0018450D01*
X0271451Y0017551D01*
X0271450Y0017550D01*
X0271246Y0017554D01*
X0271042Y0017562D01*
X0270838Y0017576D01*
X0270634Y0017594D01*
X0270431Y0017618D01*
X0270229Y0017646D01*
X0270027Y0017679D01*
X0269827Y0017717D01*
X0269627Y0017760D01*
X0269428Y0017808D01*
X0269231Y0017860D01*
X0269035Y0017918D01*
X0268840Y0017980D01*
X0268647Y0018046D01*
X0268455Y0018118D01*
X0268266Y0018194D01*
X0268078Y0018274D01*
X0267892Y0018359D01*
X0267708Y0018449D01*
X0267527Y0018542D01*
X0267348Y0018641D01*
X0267171Y0018743D01*
X0266997Y0018850D01*
X0266825Y0018961D01*
X0266656Y0019076D01*
X0266490Y0019195D01*
X0266327Y0019318D01*
X0266167Y0019445D01*
X0266010Y0019576D01*
X0265856Y0019711D01*
X0265706Y0019849D01*
X0265559Y0019991D01*
X0265415Y0020136D01*
X0265275Y0020285D01*
X0265139Y0020437D01*
X0265006Y0020593D01*
X0264878Y0020751D01*
X0264753Y0020913D01*
X0264632Y0021078D01*
X0264515Y0021245D01*
X0264402Y0021416D01*
X0264293Y0021589D01*
X0264188Y0021764D01*
X0264270Y0021811D01*
X0264373Y0021637D01*
X0264481Y0021466D01*
X0264593Y0021298D01*
X0264708Y0021132D01*
X0264828Y0020969D01*
X0264952Y0020810D01*
X0265079Y0020653D01*
X0265210Y0020499D01*
X0265345Y0020349D01*
X0265483Y0020201D01*
X0265625Y0020058D01*
X0265771Y0019917D01*
X0265919Y0019781D01*
X0266071Y0019648D01*
X0266227Y0019518D01*
X0266385Y0019393D01*
X0266546Y0019271D01*
X0266710Y0019153D01*
X0266877Y0019039D01*
X0267047Y0018930D01*
X0267219Y0018824D01*
X0267394Y0018723D01*
X0267571Y0018625D01*
X0267750Y0018533D01*
X0267932Y0018444D01*
X0268116Y0018360D01*
X0268301Y0018280D01*
X0268489Y0018205D01*
X0268678Y0018135D01*
X0268869Y0018069D01*
X0269062Y0018008D01*
X0269256Y0017951D01*
X0269451Y0017899D01*
X0269647Y0017852D01*
X0269845Y0017810D01*
X0270043Y0017772D01*
X0270243Y0017739D01*
X0270443Y0017711D01*
X0270644Y0017688D01*
X0270845Y0017670D01*
X0271046Y0017656D01*
X0271248Y0017648D01*
X0271450Y0017644D01*
X0271450Y0017738D01*
X0271251Y0017742D01*
X0271051Y0017750D01*
X0270852Y0017763D01*
X0270653Y0017782D01*
X0270454Y0017804D01*
X0270257Y0017832D01*
X0270059Y0017865D01*
X0269863Y0017902D01*
X0269668Y0017944D01*
X0269474Y0017990D01*
X0269281Y0018042D01*
X0269089Y0018098D01*
X0268899Y0018158D01*
X0268710Y0018223D01*
X0268523Y0018293D01*
X0268337Y0018367D01*
X0268154Y0018446D01*
X0267972Y0018529D01*
X0267792Y0018617D01*
X0267615Y0018708D01*
X0267440Y0018804D01*
X0267267Y0018905D01*
X0267097Y0019009D01*
X0266929Y0019118D01*
X0266764Y0019230D01*
X0266602Y0019346D01*
X0266443Y0019467D01*
X0266286Y0019591D01*
X0266133Y0019719D01*
X0265982Y0019850D01*
X0265835Y0019986D01*
X0265692Y0020124D01*
X0265551Y0020266D01*
X0265414Y0020412D01*
X0265281Y0020561D01*
X0265151Y0020713D01*
X0265025Y0020868D01*
X0264903Y0021026D01*
X0264785Y0021187D01*
X0264671Y0021350D01*
X0264560Y0021517D01*
X0264454Y0021686D01*
X0264352Y0021857D01*
X0264433Y0021904D01*
X0264534Y0021734D01*
X0264639Y0021567D01*
X0264749Y0021403D01*
X0264862Y0021241D01*
X0264979Y0021082D01*
X0265099Y0020926D01*
X0265224Y0020772D01*
X0265352Y0020622D01*
X0265484Y0020475D01*
X0265619Y0020331D01*
X0265758Y0020191D01*
X0265900Y0020054D01*
X0266045Y0019920D01*
X0266194Y0019790D01*
X0266346Y0019664D01*
X0266500Y0019541D01*
X0266658Y0019422D01*
X0266818Y0019307D01*
X0266981Y0019196D01*
X0267147Y0019089D01*
X0267315Y0018985D01*
X0267486Y0018886D01*
X0267659Y0018791D01*
X0267835Y0018701D01*
X0268012Y0018614D01*
X0268192Y0018532D01*
X0268373Y0018454D01*
X0268556Y0018381D01*
X0268741Y0018312D01*
X0268928Y0018248D01*
X0269116Y0018188D01*
X0269306Y0018132D01*
X0269496Y0018082D01*
X0269688Y0018035D01*
X0269881Y0017994D01*
X0270075Y0017957D01*
X0270270Y0017925D01*
X0270466Y0017898D01*
X0270662Y0017875D01*
X0270859Y0017857D01*
X0271056Y0017844D01*
X0271253Y0017836D01*
X0271450Y0017832D01*
X0271450Y0017926D01*
X0271255Y0017930D01*
X0271060Y0017938D01*
X0270865Y0017951D01*
X0270671Y0017969D01*
X0270477Y0017991D01*
X0270284Y0018018D01*
X0270091Y0018050D01*
X0269900Y0018086D01*
X0269709Y0018127D01*
X0269519Y0018173D01*
X0269331Y0018223D01*
X0269143Y0018278D01*
X0268957Y0018337D01*
X0268773Y0018400D01*
X0268590Y0018469D01*
X0268409Y0018541D01*
X0268230Y0018618D01*
X0268052Y0018699D01*
X0267877Y0018785D01*
X0267703Y0018874D01*
X0267532Y0018968D01*
X0267364Y0019066D01*
X0267197Y0019168D01*
X0267033Y0019274D01*
X0266872Y0019384D01*
X0266714Y0019498D01*
X0266558Y0019615D01*
X0266405Y0019737D01*
X0266255Y0019862D01*
X0266108Y0019990D01*
X0265965Y0020122D01*
X0265824Y0020258D01*
X0265687Y0020397D01*
X0265553Y0020539D01*
X0265423Y0020684D01*
X0265296Y0020832D01*
X0265173Y0020984D01*
X0265054Y0021138D01*
X0264938Y0021295D01*
X0264827Y0021455D01*
X0264719Y0021618D01*
X0264615Y0021783D01*
X0264515Y0021951D01*
X0264596Y0021997D01*
X0264695Y0021832D01*
X0264798Y0021668D01*
X0264905Y0021508D01*
X0265015Y0021350D01*
X0265129Y0021194D01*
X0265247Y0021042D01*
X0265369Y0020892D01*
X0265494Y0020746D01*
X0265623Y0020602D01*
X0265755Y0020462D01*
X0265890Y0020324D01*
X0266029Y0020190D01*
X0266171Y0020060D01*
X0266316Y0019933D01*
X0266464Y0019809D01*
X0266615Y0019690D01*
X0266769Y0019573D01*
X0266926Y0019461D01*
X0267085Y0019352D01*
X0267247Y0019248D01*
X0267412Y0019147D01*
X0267578Y0019050D01*
X0267748Y0018957D01*
X0267919Y0018869D01*
X0268092Y0018784D01*
X0268268Y0018704D01*
X0268445Y0018628D01*
X0268624Y0018556D01*
X0268805Y0018489D01*
X0268987Y0018426D01*
X0269171Y0018368D01*
X0269356Y0018314D01*
X0269542Y0018264D01*
X0269730Y0018219D01*
X0269918Y0018178D01*
X0270107Y0018142D01*
X0270298Y0018111D01*
X0270489Y0018084D01*
X0270680Y0018062D01*
X0270872Y0018045D01*
X0271065Y0018032D01*
X0271257Y0018024D01*
X0271450Y0018020D01*
X0271450Y0018114D01*
X0271260Y0018118D01*
X0271069Y0018126D01*
X0270879Y0018138D01*
X0270689Y0018156D01*
X0270500Y0018178D01*
X0270312Y0018204D01*
X0270124Y0018235D01*
X0269936Y0018271D01*
X0269750Y0018311D01*
X0269565Y0018355D01*
X0269381Y0018404D01*
X0269198Y0018458D01*
X0269016Y0018515D01*
X0268836Y0018578D01*
X0268658Y0018644D01*
X0268481Y0018715D01*
X0268306Y0018790D01*
X0268132Y0018869D01*
X0267961Y0018953D01*
X0267792Y0019040D01*
X0267625Y0019132D01*
X0267460Y0019228D01*
X0267297Y0019327D01*
X0267137Y0019431D01*
X0266980Y0019538D01*
X0266825Y0019649D01*
X0266673Y0019764D01*
X0266524Y0019882D01*
X0266378Y0020004D01*
X0266234Y0020130D01*
X0266094Y0020259D01*
X0265957Y0020391D01*
X0265823Y0020527D01*
X0265692Y0020665D01*
X0265565Y0020807D01*
X0265441Y0020952D01*
X0265321Y0021100D01*
X0265205Y0021251D01*
X0265092Y0021404D01*
X0264983Y0021560D01*
X0264877Y0021719D01*
X0264776Y0021880D01*
X0264678Y0022044D01*
X0264760Y0022091D01*
X0264856Y0021929D01*
X0264956Y0021770D01*
X0265060Y0021613D01*
X0265168Y0021458D01*
X0265280Y0021307D01*
X0265395Y0021158D01*
X0265514Y0021012D01*
X0265636Y0020869D01*
X0265762Y0020729D01*
X0265891Y0020592D01*
X0266023Y0020458D01*
X0266159Y0020327D01*
X0266297Y0020200D01*
X0266439Y0020076D01*
X0266583Y0019955D01*
X0266731Y0019838D01*
X0266881Y0019725D01*
X0267034Y0019615D01*
X0267190Y0019509D01*
X0267348Y0019407D01*
X0267508Y0019308D01*
X0267671Y0019214D01*
X0267836Y0019123D01*
X0268003Y0019037D01*
X0268172Y0018954D01*
X0268343Y0018876D01*
X0268516Y0018802D01*
X0268691Y0018732D01*
X0268868Y0018666D01*
X0269046Y0018605D01*
X0269225Y0018548D01*
X0269406Y0018495D01*
X0269588Y0018446D01*
X0269771Y0018402D01*
X0269955Y0018363D01*
X0270140Y0018328D01*
X0270325Y0018297D01*
X0270512Y0018271D01*
X0270699Y0018249D01*
X0270886Y0018232D01*
X0271074Y0018220D01*
X0271262Y0018212D01*
X0271450Y0018208D01*
X0271450Y0018302D01*
X0271264Y0018306D01*
X0271079Y0018314D01*
X0270893Y0018326D01*
X0270708Y0018343D01*
X0270523Y0018364D01*
X0270339Y0018390D01*
X0270156Y0018420D01*
X0269973Y0018455D01*
X0269791Y0018494D01*
X0269610Y0018538D01*
X0269431Y0018585D01*
X0269252Y0018638D01*
X0269075Y0018694D01*
X0268899Y0018755D01*
X0268725Y0018820D01*
X0268552Y0018889D01*
X0268381Y0018962D01*
X0268212Y0019039D01*
X0268045Y0019121D01*
X0267880Y0019206D01*
X0267717Y0019296D01*
X0267556Y0019389D01*
X0267398Y0019486D01*
X0267242Y0019587D01*
X0267088Y0019692D01*
X0266937Y0019800D01*
X0266788Y0019912D01*
X0266643Y0020028D01*
X0266500Y0020147D01*
X0266360Y0020269D01*
X0266223Y0020395D01*
X0266089Y0020524D01*
X0265959Y0020657D01*
X0265831Y0020792D01*
X0265707Y0020930D01*
X0265586Y0021072D01*
X0265469Y0021216D01*
X0265355Y0021363D01*
X0265245Y0021513D01*
X0265138Y0021665D01*
X0265036Y0021820D01*
X0264937Y0021978D01*
X0264841Y0022137D01*
X0264923Y0022184D01*
X0265017Y0022026D01*
X0265115Y0021871D01*
X0265216Y0021718D01*
X0265322Y0021567D01*
X0265431Y0021419D01*
X0265543Y0021274D01*
X0265659Y0021132D01*
X0265778Y0020992D01*
X0265901Y0020855D01*
X0266027Y0020722D01*
X0266156Y0020591D01*
X0266288Y0020463D01*
X0266423Y0020339D01*
X0266561Y0020218D01*
X0266702Y0020101D01*
X0266846Y0019987D01*
X0266993Y0019876D01*
X0267142Y0019769D01*
X0267294Y0019665D01*
X0267448Y0019566D01*
X0267604Y0019470D01*
X0267763Y0019378D01*
X0267924Y0019289D01*
X0268087Y0019205D01*
X0268252Y0019124D01*
X0268419Y0019048D01*
X0268588Y0018976D01*
X0268759Y0018907D01*
X0268931Y0018843D01*
X0269104Y0018783D01*
X0269279Y0018727D01*
X0269456Y0018676D01*
X0269633Y0018629D01*
X0269812Y0018586D01*
X0269991Y0018547D01*
X0270172Y0018513D01*
X0270353Y0018483D01*
X0270535Y0018458D01*
X0270717Y0018436D01*
X0270900Y0018420D01*
X0271083Y0018407D01*
X0271267Y0018400D01*
X0271450Y0018396D01*
X0277959Y0031448D02*
X0277267Y0030871D01*
X0277268Y0030872D02*
X0277149Y0031009D01*
X0277028Y0031143D01*
X0276903Y0031274D01*
X0276775Y0031402D01*
X0276644Y0031526D01*
X0276510Y0031648D01*
X0276373Y0031767D01*
X0276234Y0031882D01*
X0276091Y0031993D01*
X0275946Y0032102D01*
X0275799Y0032207D01*
X0275649Y0032308D01*
X0275497Y0032405D01*
X0275342Y0032499D01*
X0275185Y0032590D01*
X0275026Y0032676D01*
X0274865Y0032759D01*
X0274702Y0032837D01*
X0274537Y0032912D01*
X0274371Y0032983D01*
X0274203Y0033050D01*
X0274033Y0033112D01*
X0273862Y0033171D01*
X0273689Y0033226D01*
X0273516Y0033276D01*
X0273341Y0033322D01*
X0273165Y0033364D01*
X0272988Y0033402D01*
X0272810Y0033435D01*
X0272631Y0033465D01*
X0272452Y0033490D01*
X0272272Y0033510D01*
X0272092Y0033527D01*
X0271912Y0033539D01*
X0271731Y0033546D01*
X0271550Y0033550D01*
X0271549Y0034449D01*
X0271550Y0034450D01*
X0271753Y0034446D01*
X0271955Y0034438D01*
X0272158Y0034424D01*
X0272360Y0034406D01*
X0272561Y0034383D01*
X0272762Y0034355D01*
X0272962Y0034322D01*
X0273162Y0034285D01*
X0273360Y0034243D01*
X0273558Y0034196D01*
X0273754Y0034144D01*
X0273948Y0034087D01*
X0274142Y0034026D01*
X0274334Y0033961D01*
X0274524Y0033890D01*
X0274713Y0033815D01*
X0274899Y0033736D01*
X0275084Y0033652D01*
X0275267Y0033564D01*
X0275447Y0033471D01*
X0275625Y0033375D01*
X0275801Y0033273D01*
X0275974Y0033168D01*
X0276145Y0033059D01*
X0276313Y0032945D01*
X0276479Y0032828D01*
X0276641Y0032706D01*
X0276801Y0032581D01*
X0276957Y0032452D01*
X0277110Y0032319D01*
X0277260Y0032182D01*
X0277407Y0032042D01*
X0277550Y0031899D01*
X0277690Y0031752D01*
X0277827Y0031602D01*
X0277959Y0031448D01*
X0277887Y0031388D01*
X0277756Y0031540D01*
X0277621Y0031688D01*
X0277483Y0031833D01*
X0277341Y0031975D01*
X0277196Y0032114D01*
X0277048Y0032249D01*
X0276896Y0032380D01*
X0276741Y0032508D01*
X0276584Y0032632D01*
X0276423Y0032752D01*
X0276260Y0032868D01*
X0276093Y0032980D01*
X0275925Y0033088D01*
X0275753Y0033193D01*
X0275579Y0033293D01*
X0275403Y0033388D01*
X0275225Y0033480D01*
X0275044Y0033567D01*
X0274861Y0033650D01*
X0274677Y0033729D01*
X0274491Y0033803D01*
X0274302Y0033872D01*
X0274113Y0033937D01*
X0273921Y0033997D01*
X0273729Y0034053D01*
X0273535Y0034104D01*
X0273340Y0034151D01*
X0273144Y0034193D01*
X0272947Y0034230D01*
X0272749Y0034262D01*
X0272550Y0034290D01*
X0272351Y0034313D01*
X0272151Y0034331D01*
X0271951Y0034344D01*
X0271750Y0034352D01*
X0271550Y0034356D01*
X0271550Y0034262D01*
X0271748Y0034258D01*
X0271946Y0034250D01*
X0272144Y0034237D01*
X0272342Y0034219D01*
X0272539Y0034196D01*
X0272735Y0034169D01*
X0272931Y0034137D01*
X0273125Y0034101D01*
X0273319Y0034059D01*
X0273512Y0034013D01*
X0273704Y0033963D01*
X0273894Y0033907D01*
X0274083Y0033848D01*
X0274271Y0033783D01*
X0274457Y0033715D01*
X0274641Y0033642D01*
X0274824Y0033564D01*
X0275004Y0033482D01*
X0275183Y0033396D01*
X0275359Y0033305D01*
X0275533Y0033211D01*
X0275705Y0033112D01*
X0275875Y0033009D01*
X0276042Y0032902D01*
X0276206Y0032791D01*
X0276367Y0032676D01*
X0276526Y0032557D01*
X0276682Y0032435D01*
X0276835Y0032309D01*
X0276985Y0032179D01*
X0277132Y0032045D01*
X0277275Y0031908D01*
X0277415Y0031768D01*
X0277552Y0031625D01*
X0277685Y0031478D01*
X0277815Y0031328D01*
X0277743Y0031268D01*
X0277614Y0031416D01*
X0277483Y0031561D01*
X0277348Y0031703D01*
X0277209Y0031841D01*
X0277067Y0031977D01*
X0276922Y0032109D01*
X0276774Y0032237D01*
X0276623Y0032362D01*
X0276469Y0032483D01*
X0276312Y0032600D01*
X0276152Y0032714D01*
X0275990Y0032823D01*
X0275825Y0032929D01*
X0275657Y0033031D01*
X0275487Y0033129D01*
X0275315Y0033222D01*
X0275141Y0033312D01*
X0274964Y0033397D01*
X0274786Y0033478D01*
X0274606Y0033555D01*
X0274423Y0033627D01*
X0274240Y0033695D01*
X0274054Y0033758D01*
X0273867Y0033817D01*
X0273679Y0033872D01*
X0273490Y0033922D01*
X0273299Y0033967D01*
X0273107Y0034008D01*
X0272915Y0034045D01*
X0272721Y0034076D01*
X0272527Y0034103D01*
X0272332Y0034125D01*
X0272137Y0034143D01*
X0271942Y0034156D01*
X0271746Y0034164D01*
X0271550Y0034168D01*
X0271550Y0034074D01*
X0271744Y0034070D01*
X0271937Y0034062D01*
X0272130Y0034049D01*
X0272323Y0034032D01*
X0272516Y0034010D01*
X0272708Y0033983D01*
X0272899Y0033952D01*
X0273089Y0033916D01*
X0273279Y0033876D01*
X0273467Y0033831D01*
X0273654Y0033781D01*
X0273840Y0033727D01*
X0274025Y0033669D01*
X0274208Y0033606D01*
X0274390Y0033539D01*
X0274570Y0033468D01*
X0274748Y0033392D01*
X0274925Y0033312D01*
X0275099Y0033228D01*
X0275271Y0033139D01*
X0275441Y0033047D01*
X0275609Y0032950D01*
X0275775Y0032849D01*
X0275938Y0032745D01*
X0276098Y0032637D01*
X0276256Y0032524D01*
X0276411Y0032408D01*
X0276564Y0032289D01*
X0276713Y0032165D01*
X0276860Y0032039D01*
X0277003Y0031908D01*
X0277143Y0031775D01*
X0277280Y0031638D01*
X0277413Y0031497D01*
X0277544Y0031354D01*
X0277670Y0031207D01*
X0277598Y0031147D01*
X0277473Y0031292D01*
X0277344Y0031434D01*
X0277212Y0031572D01*
X0277077Y0031708D01*
X0276938Y0031840D01*
X0276797Y0031969D01*
X0276652Y0032094D01*
X0276505Y0032216D01*
X0276354Y0032334D01*
X0276201Y0032449D01*
X0276045Y0032559D01*
X0275886Y0032667D01*
X0275725Y0032770D01*
X0275561Y0032869D01*
X0275395Y0032965D01*
X0275227Y0033056D01*
X0275057Y0033143D01*
X0274885Y0033227D01*
X0274710Y0033306D01*
X0274534Y0033381D01*
X0274356Y0033451D01*
X0274177Y0033518D01*
X0273996Y0033580D01*
X0273813Y0033637D01*
X0273629Y0033691D01*
X0273444Y0033740D01*
X0273258Y0033784D01*
X0273071Y0033824D01*
X0272883Y0033859D01*
X0272694Y0033890D01*
X0272504Y0033917D01*
X0272314Y0033938D01*
X0272124Y0033956D01*
X0271933Y0033968D01*
X0271741Y0033976D01*
X0271550Y0033980D01*
X0271550Y0033886D01*
X0271739Y0033882D01*
X0271928Y0033874D01*
X0272117Y0033862D01*
X0272305Y0033845D01*
X0272493Y0033823D01*
X0272680Y0033797D01*
X0272867Y0033767D01*
X0273053Y0033732D01*
X0273238Y0033692D01*
X0273422Y0033648D01*
X0273604Y0033600D01*
X0273786Y0033547D01*
X0273966Y0033490D01*
X0274145Y0033429D01*
X0274323Y0033363D01*
X0274499Y0033294D01*
X0274673Y0033220D01*
X0274845Y0033142D01*
X0275015Y0033059D01*
X0275183Y0032973D01*
X0275349Y0032883D01*
X0275513Y0032788D01*
X0275675Y0032690D01*
X0275834Y0032588D01*
X0275991Y0032482D01*
X0276145Y0032373D01*
X0276297Y0032259D01*
X0276445Y0032143D01*
X0276591Y0032022D01*
X0276734Y0031899D01*
X0276874Y0031771D01*
X0277011Y0031641D01*
X0277145Y0031507D01*
X0277275Y0031370D01*
X0277402Y0031230D01*
X0277526Y0031087D01*
X0277454Y0031027D01*
X0277331Y0031168D01*
X0277206Y0031306D01*
X0277077Y0031442D01*
X0276945Y0031574D01*
X0276810Y0031703D01*
X0276671Y0031828D01*
X0276530Y0031951D01*
X0276386Y0032070D01*
X0276239Y0032185D01*
X0276090Y0032297D01*
X0275937Y0032405D01*
X0275782Y0032510D01*
X0275625Y0032610D01*
X0275465Y0032707D01*
X0275304Y0032801D01*
X0275139Y0032890D01*
X0274973Y0032975D01*
X0274805Y0033056D01*
X0274635Y0033134D01*
X0274463Y0033207D01*
X0274289Y0033276D01*
X0274114Y0033340D01*
X0273937Y0033401D01*
X0273759Y0033457D01*
X0273580Y0033509D01*
X0273399Y0033557D01*
X0273217Y0033600D01*
X0273035Y0033639D01*
X0272851Y0033674D01*
X0272667Y0033704D01*
X0272482Y0033730D01*
X0272296Y0033751D01*
X0272110Y0033768D01*
X0271923Y0033780D01*
X0271737Y0033788D01*
X0271550Y0033792D01*
X0271550Y0033698D01*
X0271734Y0033694D01*
X0271919Y0033687D01*
X0272103Y0033674D01*
X0272287Y0033658D01*
X0272470Y0033637D01*
X0272653Y0033611D01*
X0272835Y0033581D01*
X0273016Y0033547D01*
X0273197Y0033509D01*
X0273376Y0033466D01*
X0273555Y0033419D01*
X0273732Y0033367D01*
X0273908Y0033312D01*
X0274083Y0033252D01*
X0274256Y0033188D01*
X0274427Y0033120D01*
X0274597Y0033048D01*
X0274765Y0032971D01*
X0274931Y0032891D01*
X0275095Y0032807D01*
X0275258Y0032719D01*
X0275418Y0032627D01*
X0275575Y0032531D01*
X0275731Y0032431D01*
X0275884Y0032328D01*
X0276034Y0032221D01*
X0276182Y0032111D01*
X0276327Y0031997D01*
X0276469Y0031879D01*
X0276609Y0031758D01*
X0276745Y0031634D01*
X0276879Y0031507D01*
X0277009Y0031376D01*
X0277137Y0031243D01*
X0277261Y0031106D01*
X0277381Y0030967D01*
X0277309Y0030906D01*
X0277190Y0031044D01*
X0277067Y0031179D01*
X0276942Y0031311D01*
X0276813Y0031440D01*
X0276681Y0031566D01*
X0276546Y0031688D01*
X0276408Y0031808D01*
X0276268Y0031924D01*
X0276124Y0032036D01*
X0275978Y0032145D01*
X0275830Y0032251D01*
X0275679Y0032353D01*
X0275525Y0032451D01*
X0275370Y0032546D01*
X0275212Y0032637D01*
X0275051Y0032724D01*
X0274889Y0032807D01*
X0274725Y0032886D01*
X0274559Y0032961D01*
X0274391Y0033033D01*
X0274222Y0033100D01*
X0274051Y0033163D01*
X0273879Y0033222D01*
X0273705Y0033277D01*
X0273530Y0033328D01*
X0273354Y0033375D01*
X0273176Y0033417D01*
X0272998Y0033455D01*
X0272819Y0033489D01*
X0272639Y0033518D01*
X0272459Y0033543D01*
X0272278Y0033564D01*
X0272096Y0033581D01*
X0271914Y0033593D01*
X0271732Y0033600D01*
X0271550Y0033604D01*
X0086024Y0037550D02*
X0085023Y0037550D01*
X0086024Y0038551D01*
X0086024Y0038801D01*
X0085774Y0039051D01*
X0085273Y0039051D01*
X0085023Y0038801D01*
X0084551Y0038801D02*
X0084301Y0039051D01*
X0083800Y0039051D01*
X0083550Y0038801D01*
X0083550Y0037800D01*
X0083800Y0037550D01*
X0084301Y0037550D01*
X0084551Y0037800D01*
X0103699Y0113050D02*
X0104700Y0113050D01*
X0104950Y0113300D01*
X0104950Y0113801D01*
X0104700Y0114051D01*
X0104950Y0114523D02*
X0104950Y0115524D01*
X0104950Y0115024D02*
X0103449Y0115024D01*
X0103949Y0114523D01*
X0103699Y0114051D02*
X0103449Y0113801D01*
X0103449Y0113300D01*
X0103699Y0113050D01*
D14*
X0277700Y0031100D02*
X0277700Y0029100D01*
X0277700Y0022700D02*
X0277700Y0020900D01*
D15*
X0279250Y0027750D02*
X0281502Y0027750D01*
X0282253Y0028501D01*
X0282253Y0031503D01*
X0281502Y0032254D01*
X0279250Y0032254D01*
X0279250Y0027750D01*
X0283854Y0027750D02*
X0286856Y0027750D01*
X0285355Y0027750D02*
X0285355Y0032254D01*
X0283854Y0030753D01*
X0356748Y0057857D02*
X0356748Y0059208D01*
X0357198Y0059659D01*
X0358099Y0059659D01*
X0358549Y0059208D01*
X0358549Y0057857D01*
X0358549Y0058758D02*
X0359450Y0059659D01*
X0359450Y0060803D02*
X0359450Y0062605D01*
X0359450Y0061704D02*
X0356748Y0061704D01*
X0357648Y0060803D01*
X0356748Y0057857D02*
X0359450Y0057857D01*
X0329450Y0062857D02*
X0326748Y0062857D01*
X0326748Y0064208D01*
X0327198Y0064659D01*
X0328099Y0064659D01*
X0328549Y0064208D01*
X0328549Y0062857D01*
X0328549Y0063758D02*
X0329450Y0064659D01*
X0329450Y0065803D02*
X0327648Y0067605D01*
X0327198Y0067605D01*
X0326748Y0067155D01*
X0326748Y0066254D01*
X0327198Y0065803D01*
X0329450Y0065803D02*
X0329450Y0067605D01*
X0326250Y0078750D02*
X0323548Y0078750D01*
X0323548Y0080101D01*
X0323998Y0080552D01*
X0324899Y0080552D01*
X0325349Y0080101D01*
X0325349Y0078750D01*
X0325349Y0079651D02*
X0326250Y0080552D01*
X0324899Y0081697D02*
X0324899Y0083498D01*
X0326250Y0083048D02*
X0323548Y0083048D01*
X0324899Y0081697D01*
X0353548Y0082147D02*
X0353548Y0083048D01*
X0353998Y0083498D01*
X0354448Y0083498D01*
X0354899Y0083048D01*
X0355349Y0083498D01*
X0355800Y0083498D01*
X0356250Y0083048D01*
X0356250Y0082147D01*
X0355800Y0081697D01*
X0356250Y0080552D02*
X0355349Y0079651D01*
X0355349Y0080101D02*
X0355349Y0078750D01*
X0356250Y0078750D02*
X0353548Y0078750D01*
X0353548Y0080101D01*
X0353998Y0080552D01*
X0354899Y0080552D01*
X0355349Y0080101D01*
X0353998Y0081697D02*
X0353548Y0082147D01*
X0354899Y0082597D02*
X0354899Y0083048D01*
X0289356Y0116250D02*
X0286354Y0116250D01*
X0287855Y0116250D02*
X0287855Y0120754D01*
X0286354Y0119253D01*
X0284753Y0120003D02*
X0284002Y0120754D01*
X0282501Y0120754D01*
X0281750Y0120003D01*
X0281750Y0119253D01*
X0282501Y0118502D01*
X0284002Y0118502D01*
X0284753Y0117751D01*
X0284753Y0117001D01*
X0284002Y0116250D01*
X0282501Y0116250D01*
X0281750Y0117001D01*
X0203660Y0125950D02*
X0200658Y0125950D01*
X0202159Y0125950D02*
X0202159Y0130454D01*
X0200658Y0128953D01*
X0199056Y0129703D02*
X0199056Y0128202D01*
X0198306Y0127451D01*
X0196054Y0127451D01*
X0196054Y0125950D02*
X0196054Y0130454D01*
X0198306Y0130454D01*
X0199056Y0129703D01*
X0194453Y0130454D02*
X0192951Y0130454D01*
X0193702Y0130454D02*
X0193702Y0126701D01*
X0192951Y0125950D01*
X0192201Y0125950D01*
X0191450Y0126701D01*
X0150147Y0019254D02*
X0150147Y0014750D01*
X0148646Y0014750D02*
X0151649Y0014750D01*
X0147045Y0015501D02*
X0146294Y0014750D01*
X0144793Y0014750D01*
X0144042Y0015501D01*
X0144042Y0018503D01*
X0144793Y0019254D01*
X0146294Y0019254D01*
X0147045Y0018503D01*
X0148646Y0017753D02*
X0150147Y0019254D01*
X0142474Y0019254D02*
X0140973Y0019254D01*
X0141723Y0019254D02*
X0141723Y0014750D01*
X0140973Y0014750D02*
X0142474Y0014750D01*
D16*
X0145500Y0021000D02*
X0145498Y0021126D01*
X0145492Y0021251D01*
X0145482Y0021376D01*
X0145468Y0021501D01*
X0145451Y0021626D01*
X0145429Y0021750D01*
X0145404Y0021873D01*
X0145374Y0021995D01*
X0145341Y0022116D01*
X0145304Y0022236D01*
X0145264Y0022355D01*
X0145219Y0022472D01*
X0145171Y0022589D01*
X0145119Y0022703D01*
X0145064Y0022816D01*
X0145005Y0022927D01*
X0144943Y0023036D01*
X0144877Y0023143D01*
X0144808Y0023248D01*
X0144736Y0023351D01*
X0144661Y0023452D01*
X0144582Y0023550D01*
X0144500Y0023645D01*
X0144416Y0023738D01*
X0144328Y0023828D01*
X0144238Y0023916D01*
X0144145Y0024000D01*
X0144050Y0024082D01*
X0143952Y0024161D01*
X0143851Y0024236D01*
X0143748Y0024308D01*
X0143643Y0024377D01*
X0143536Y0024443D01*
X0143427Y0024505D01*
X0143316Y0024564D01*
X0143203Y0024619D01*
X0143089Y0024671D01*
X0142972Y0024719D01*
X0142855Y0024764D01*
X0142736Y0024804D01*
X0142616Y0024841D01*
X0142495Y0024874D01*
X0142373Y0024904D01*
X0142250Y0024929D01*
X0142126Y0024951D01*
X0142001Y0024968D01*
X0141876Y0024982D01*
X0141751Y0024992D01*
X0141626Y0024998D01*
X0141500Y0025000D01*
X0141374Y0024998D01*
X0141249Y0024992D01*
X0141124Y0024982D01*
X0140999Y0024968D01*
X0140874Y0024951D01*
X0140750Y0024929D01*
X0140627Y0024904D01*
X0140505Y0024874D01*
X0140384Y0024841D01*
X0140264Y0024804D01*
X0140145Y0024764D01*
X0140028Y0024719D01*
X0139911Y0024671D01*
X0139797Y0024619D01*
X0139684Y0024564D01*
X0139573Y0024505D01*
X0139464Y0024443D01*
X0139357Y0024377D01*
X0139252Y0024308D01*
X0139149Y0024236D01*
X0139048Y0024161D01*
X0138950Y0024082D01*
X0138855Y0024000D01*
X0138762Y0023916D01*
X0138672Y0023828D01*
X0138584Y0023738D01*
X0138500Y0023645D01*
X0138418Y0023550D01*
X0138339Y0023452D01*
X0138264Y0023351D01*
X0138192Y0023248D01*
X0138123Y0023143D01*
X0138057Y0023036D01*
X0137995Y0022927D01*
X0137936Y0022816D01*
X0137881Y0022703D01*
X0137829Y0022589D01*
X0137781Y0022472D01*
X0137736Y0022355D01*
X0137696Y0022236D01*
X0137659Y0022116D01*
X0137626Y0021995D01*
X0137596Y0021873D01*
X0137571Y0021750D01*
X0137549Y0021626D01*
X0137532Y0021501D01*
X0137518Y0021376D01*
X0137508Y0021251D01*
X0137502Y0021126D01*
X0137500Y0021000D01*
X0130000Y0021000D01*
X0130000Y0101000D01*
X0153000Y0101000D01*
X0153000Y0021000D01*
X0145500Y0021000D01*
X0066500Y0060500D02*
X0017500Y0060500D01*
X0017500Y0064000D01*
X0011500Y0064000D01*
X0011500Y0060500D01*
X0004000Y0060500D01*
X0004000Y0101500D01*
X0011500Y0101500D01*
X0011500Y0098000D01*
X0017500Y0098000D01*
X0017500Y0101500D01*
X0066500Y0101500D01*
X0066500Y0060500D01*
X0010400Y0081000D02*
X0010402Y0081174D01*
X0010409Y0081348D01*
X0010419Y0081522D01*
X0010434Y0081696D01*
X0010453Y0081869D01*
X0010477Y0082042D01*
X0010505Y0082214D01*
X0010536Y0082385D01*
X0010573Y0082556D01*
X0010613Y0082725D01*
X0010657Y0082894D01*
X0010706Y0083061D01*
X0010758Y0083227D01*
X0010815Y0083392D01*
X0010876Y0083555D01*
X0010940Y0083717D01*
X0011009Y0083877D01*
X0011082Y0084036D01*
X0011158Y0084192D01*
X0011238Y0084347D01*
X0011322Y0084500D01*
X0011410Y0084650D01*
X0011502Y0084798D01*
X0011597Y0084945D01*
X0011695Y0085088D01*
X0011797Y0085229D01*
X0011903Y0085368D01*
X0012012Y0085504D01*
X0012124Y0085638D01*
X0012239Y0085768D01*
X0012358Y0085896D01*
X0012480Y0086020D01*
X0012604Y0086142D01*
X0012732Y0086261D01*
X0012862Y0086376D01*
X0012996Y0086488D01*
X0013132Y0086597D01*
X0013271Y0086703D01*
X0013412Y0086805D01*
X0013555Y0086903D01*
X0013702Y0086998D01*
X0013850Y0087090D01*
X0014000Y0087178D01*
X0014153Y0087262D01*
X0014308Y0087342D01*
X0014464Y0087418D01*
X0014623Y0087491D01*
X0014783Y0087560D01*
X0014945Y0087624D01*
X0015108Y0087685D01*
X0015273Y0087742D01*
X0015439Y0087794D01*
X0015606Y0087843D01*
X0015775Y0087887D01*
X0015944Y0087927D01*
X0016115Y0087964D01*
X0016286Y0087995D01*
X0016458Y0088023D01*
X0016631Y0088047D01*
X0016804Y0088066D01*
X0016978Y0088081D01*
X0017152Y0088091D01*
X0017326Y0088098D01*
X0017500Y0088100D01*
X0017674Y0088098D01*
X0017848Y0088091D01*
X0018022Y0088081D01*
X0018196Y0088066D01*
X0018369Y0088047D01*
X0018542Y0088023D01*
X0018714Y0087995D01*
X0018885Y0087964D01*
X0019056Y0087927D01*
X0019225Y0087887D01*
X0019394Y0087843D01*
X0019561Y0087794D01*
X0019727Y0087742D01*
X0019892Y0087685D01*
X0020055Y0087624D01*
X0020217Y0087560D01*
X0020377Y0087491D01*
X0020536Y0087418D01*
X0020692Y0087342D01*
X0020847Y0087262D01*
X0021000Y0087178D01*
X0021150Y0087090D01*
X0021298Y0086998D01*
X0021445Y0086903D01*
X0021588Y0086805D01*
X0021729Y0086703D01*
X0021868Y0086597D01*
X0022004Y0086488D01*
X0022138Y0086376D01*
X0022268Y0086261D01*
X0022396Y0086142D01*
X0022520Y0086020D01*
X0022642Y0085896D01*
X0022761Y0085768D01*
X0022876Y0085638D01*
X0022988Y0085504D01*
X0023097Y0085368D01*
X0023203Y0085229D01*
X0023305Y0085088D01*
X0023403Y0084945D01*
X0023498Y0084798D01*
X0023590Y0084650D01*
X0023678Y0084500D01*
X0023762Y0084347D01*
X0023842Y0084192D01*
X0023918Y0084036D01*
X0023991Y0083877D01*
X0024060Y0083717D01*
X0024124Y0083555D01*
X0024185Y0083392D01*
X0024242Y0083227D01*
X0024294Y0083061D01*
X0024343Y0082894D01*
X0024387Y0082725D01*
X0024427Y0082556D01*
X0024464Y0082385D01*
X0024495Y0082214D01*
X0024523Y0082042D01*
X0024547Y0081869D01*
X0024566Y0081696D01*
X0024581Y0081522D01*
X0024591Y0081348D01*
X0024598Y0081174D01*
X0024600Y0081000D01*
X0024598Y0080826D01*
X0024591Y0080652D01*
X0024581Y0080478D01*
X0024566Y0080304D01*
X0024547Y0080131D01*
X0024523Y0079958D01*
X0024495Y0079786D01*
X0024464Y0079615D01*
X0024427Y0079444D01*
X0024387Y0079275D01*
X0024343Y0079106D01*
X0024294Y0078939D01*
X0024242Y0078773D01*
X0024185Y0078608D01*
X0024124Y0078445D01*
X0024060Y0078283D01*
X0023991Y0078123D01*
X0023918Y0077964D01*
X0023842Y0077808D01*
X0023762Y0077653D01*
X0023678Y0077500D01*
X0023590Y0077350D01*
X0023498Y0077202D01*
X0023403Y0077055D01*
X0023305Y0076912D01*
X0023203Y0076771D01*
X0023097Y0076632D01*
X0022988Y0076496D01*
X0022876Y0076362D01*
X0022761Y0076232D01*
X0022642Y0076104D01*
X0022520Y0075980D01*
X0022396Y0075858D01*
X0022268Y0075739D01*
X0022138Y0075624D01*
X0022004Y0075512D01*
X0021868Y0075403D01*
X0021729Y0075297D01*
X0021588Y0075195D01*
X0021445Y0075097D01*
X0021298Y0075002D01*
X0021150Y0074910D01*
X0021000Y0074822D01*
X0020847Y0074738D01*
X0020692Y0074658D01*
X0020536Y0074582D01*
X0020377Y0074509D01*
X0020217Y0074440D01*
X0020055Y0074376D01*
X0019892Y0074315D01*
X0019727Y0074258D01*
X0019561Y0074206D01*
X0019394Y0074157D01*
X0019225Y0074113D01*
X0019056Y0074073D01*
X0018885Y0074036D01*
X0018714Y0074005D01*
X0018542Y0073977D01*
X0018369Y0073953D01*
X0018196Y0073934D01*
X0018022Y0073919D01*
X0017848Y0073909D01*
X0017674Y0073902D01*
X0017500Y0073900D01*
X0017326Y0073902D01*
X0017152Y0073909D01*
X0016978Y0073919D01*
X0016804Y0073934D01*
X0016631Y0073953D01*
X0016458Y0073977D01*
X0016286Y0074005D01*
X0016115Y0074036D01*
X0015944Y0074073D01*
X0015775Y0074113D01*
X0015606Y0074157D01*
X0015439Y0074206D01*
X0015273Y0074258D01*
X0015108Y0074315D01*
X0014945Y0074376D01*
X0014783Y0074440D01*
X0014623Y0074509D01*
X0014464Y0074582D01*
X0014308Y0074658D01*
X0014153Y0074738D01*
X0014000Y0074822D01*
X0013850Y0074910D01*
X0013702Y0075002D01*
X0013555Y0075097D01*
X0013412Y0075195D01*
X0013271Y0075297D01*
X0013132Y0075403D01*
X0012996Y0075512D01*
X0012862Y0075624D01*
X0012732Y0075739D01*
X0012604Y0075858D01*
X0012480Y0075980D01*
X0012358Y0076104D01*
X0012239Y0076232D01*
X0012124Y0076362D01*
X0012012Y0076496D01*
X0011903Y0076632D01*
X0011797Y0076771D01*
X0011695Y0076912D01*
X0011597Y0077055D01*
X0011502Y0077202D01*
X0011410Y0077350D01*
X0011322Y0077500D01*
X0011238Y0077653D01*
X0011158Y0077808D01*
X0011082Y0077964D01*
X0011009Y0078123D01*
X0010940Y0078283D01*
X0010876Y0078445D01*
X0010815Y0078608D01*
X0010758Y0078773D01*
X0010706Y0078939D01*
X0010657Y0079106D01*
X0010613Y0079275D01*
X0010573Y0079444D01*
X0010536Y0079615D01*
X0010505Y0079786D01*
X0010477Y0079958D01*
X0010453Y0080131D01*
X0010434Y0080304D01*
X0010419Y0080478D01*
X0010409Y0080652D01*
X0010402Y0080826D01*
X0010400Y0081000D01*
X0273800Y0042069D02*
X0274934Y0043203D01*
X0274934Y0039800D01*
X0273800Y0039800D02*
X0276069Y0039800D01*
X0277483Y0040367D02*
X0279752Y0042636D01*
X0279752Y0040367D01*
X0279185Y0039800D01*
X0278050Y0039800D01*
X0277483Y0040367D01*
X0277483Y0042636D01*
X0278050Y0043203D01*
X0279185Y0043203D01*
X0279752Y0042636D01*
X0281166Y0042636D02*
X0281166Y0040367D01*
X0283435Y0042636D01*
X0283435Y0040367D01*
X0282868Y0039800D01*
X0281733Y0039800D01*
X0281166Y0040367D01*
X0281166Y0042636D02*
X0281733Y0043203D01*
X0282868Y0043203D01*
X0283435Y0042636D01*
X0284849Y0043203D02*
X0284849Y0039800D01*
X0284849Y0040934D02*
X0287118Y0043203D01*
X0285417Y0041501D02*
X0287118Y0039800D01*
D17*
X0217799Y0082102D02*
X0192209Y0082102D01*
X0192209Y0084465D01*
X0192209Y0084858D02*
X0192209Y0104150D01*
X0195752Y0104150D01*
X0195752Y0089583D01*
X0199689Y0089583D01*
X0199689Y0103756D01*
X0204413Y0103756D01*
X0204413Y0089583D01*
X0209138Y0089583D01*
X0209138Y0103756D01*
X0213469Y0103756D01*
X0213469Y0089976D01*
X0217799Y0089976D01*
X0217799Y0103756D01*
X0233547Y0103756D01*
D18*
X0064000Y0099000D02*
X0064000Y0063000D01*
X0031500Y0063000D01*
X0031500Y0099000D01*
X0064000Y0099000D01*
D19*
X0041150Y0083445D02*
X0041150Y0079241D01*
X0036946Y0083445D01*
X0035896Y0083445D01*
X0034845Y0082394D01*
X0034845Y0080292D01*
X0035896Y0079241D01*
X0035896Y0076999D02*
X0034845Y0075948D01*
X0034845Y0073846D01*
X0035896Y0072795D01*
X0036946Y0072795D01*
X0037997Y0073846D01*
X0037997Y0075948D01*
X0039048Y0076999D01*
X0040099Y0076999D01*
X0041150Y0075948D01*
X0041150Y0073846D01*
X0040099Y0072795D01*
X0040099Y0070554D02*
X0034845Y0070554D01*
X0040099Y0070554D02*
X0041150Y0069503D01*
X0041150Y0067401D01*
X0040099Y0066350D01*
X0034845Y0066350D01*
X0033794Y0074897D02*
X0042201Y0074897D01*
D20*
X0068250Y0071000D03*
X0068250Y0081000D03*
X0068250Y0091000D03*
M02*
