G75*
%MOIN*%
%OFA0B0*%
%FSLAX25Y25*%
%IPPOS*%
%LPD*%
%AMOC8*
5,1,8,0,0,1.08239X$1,22.5*
%
%ADD10C,0.06000*%
%ADD11C,0.06500*%
%ADD12R,0.06500X0.06500*%
%ADD13C,0.07600*%
%ADD14R,0.07600X0.07600*%
%ADD15C,0.07400*%
%ADD16C,0.05200*%
%ADD17C,0.07400*%
%ADD18C,0.04756*%
%ADD19C,0.03200*%
%ADD20C,0.04750*%
D10*
X0073500Y0071000D02*
X0079500Y0071000D01*
X0079500Y0081000D02*
X0073500Y0081000D01*
X0073500Y0091000D02*
X0079500Y0091000D01*
X0079500Y0110500D02*
X0073500Y0110500D01*
X0073500Y0121500D02*
X0079500Y0121500D01*
X0136000Y0119000D02*
X0136000Y0113000D01*
X0147000Y0113000D02*
X0147000Y0119000D01*
X0386000Y0119000D02*
X0386000Y0113000D01*
X0397000Y0113000D02*
X0397000Y0119000D01*
X0397000Y0084000D02*
X0397000Y0078000D01*
X0386000Y0078000D02*
X0386000Y0084000D01*
X0386000Y0049000D02*
X0386000Y0043000D01*
X0397000Y0043000D02*
X0397000Y0049000D01*
X0397000Y0019000D02*
X0397000Y0013000D01*
X0386000Y0013000D02*
X0386000Y0019000D01*
D11*
X0111500Y0111000D03*
D12*
X0111500Y0121000D03*
D13*
X0076657Y0026000D03*
D14*
X0096343Y0026000D03*
D15*
X0251500Y0091000D03*
X0278700Y0092100D03*
X0304300Y0092100D03*
X0316500Y0076000D03*
X0336500Y0071000D03*
X0346500Y0071000D03*
X0366500Y0071000D03*
X0296500Y0041000D03*
X0266500Y0041000D03*
X0266500Y0026000D03*
X0276500Y0026000D03*
X0316500Y0026000D03*
X0346500Y0021000D03*
X0304300Y0109900D03*
X0278700Y0109900D03*
X0336500Y0121000D03*
X0366500Y0121000D03*
D16*
X0159100Y0096000D02*
X0153900Y0096000D01*
X0129100Y0096000D02*
X0123900Y0096000D01*
X0123900Y0086000D02*
X0129100Y0086000D01*
X0129100Y0076000D02*
X0123900Y0076000D01*
X0123900Y0066000D02*
X0129100Y0066000D01*
X0129100Y0056000D02*
X0123900Y0056000D01*
X0123900Y0046000D02*
X0129100Y0046000D01*
X0129100Y0036000D02*
X0123900Y0036000D01*
X0123900Y0026000D02*
X0129100Y0026000D01*
X0153900Y0026000D02*
X0159100Y0026000D01*
X0159100Y0036000D02*
X0153900Y0036000D01*
X0153900Y0046000D02*
X0159100Y0046000D01*
X0159100Y0056000D02*
X0153900Y0056000D01*
X0153900Y0066000D02*
X0159100Y0066000D01*
X0159100Y0076000D02*
X0153900Y0076000D01*
X0153900Y0086000D02*
X0159100Y0086000D01*
D17*
X0196500Y0112300D02*
X0196500Y0119700D01*
X0206500Y0119700D02*
X0206500Y0112300D01*
X0216500Y0112300D02*
X0216500Y0119700D01*
X0226500Y0119700D02*
X0226500Y0112300D01*
X0236500Y0112300D02*
X0236500Y0119700D01*
X0246500Y0119700D02*
X0246500Y0112300D01*
D18*
X0243421Y0073835D02*
X0238665Y0073835D01*
X0238665Y0065961D02*
X0243421Y0065961D01*
X0243421Y0058087D02*
X0238665Y0058087D01*
X0238665Y0050213D02*
X0243421Y0050213D01*
X0243421Y0042339D02*
X0238665Y0042339D01*
X0238665Y0034465D02*
X0243421Y0034465D01*
X0243421Y0026591D02*
X0238665Y0026591D01*
X0238665Y0018717D02*
X0243421Y0018717D01*
X0183547Y0018717D02*
X0178791Y0018717D01*
X0178791Y0026591D02*
X0183547Y0026591D01*
X0183547Y0034465D02*
X0178791Y0034465D01*
X0178791Y0042339D02*
X0183547Y0042339D01*
X0183547Y0050213D02*
X0178791Y0050213D01*
X0178791Y0058087D02*
X0183547Y0058087D01*
X0183547Y0065961D02*
X0178791Y0065961D01*
X0178791Y0073835D02*
X0183547Y0073835D01*
D19*
X0076657Y0026000D02*
X0076500Y0026157D01*
X0076500Y0071000D01*
X0061500Y0071000D01*
X0061500Y0111000D01*
X0076000Y0111000D01*
X0076500Y0110500D01*
X0111000Y0110500D01*
X0111500Y0111000D01*
X0106500Y0116000D01*
X0066500Y0116000D01*
X0066500Y0131000D01*
X0166500Y0131000D01*
X0171500Y0126000D01*
X0171500Y0101000D01*
X0226500Y0046000D01*
X0226500Y0026000D01*
X0233783Y0018717D01*
X0238665Y0018717D01*
X0279217Y0018717D01*
X0276500Y0026000D01*
X0291500Y0041000D01*
X0296500Y0041000D01*
X0296500Y0031000D01*
X0311500Y0016000D01*
X0331500Y0016000D01*
X0331500Y0071000D01*
X0321500Y0071000D01*
X0316500Y0076000D01*
X0316500Y0121000D01*
X0279800Y0121000D01*
X0278700Y0109900D01*
X0262600Y0116000D01*
X0246500Y0116000D01*
X0216500Y0116000D02*
X0216500Y0096000D01*
X0238665Y0073835D01*
X0238665Y0065961D02*
X0236539Y0065961D01*
X0206500Y0096000D01*
X0206500Y0116000D01*
X0186500Y0106000D02*
X0186500Y0126000D01*
X0331500Y0126000D01*
X0336500Y0121000D01*
X0346500Y0121000D01*
X0356500Y0111000D01*
X0381000Y0111000D01*
X0386000Y0116000D01*
X0397000Y0116000D02*
X0397000Y0081000D01*
X0397000Y0046000D01*
X0397000Y0016000D01*
X0396500Y0015500D01*
X0396500Y0011000D01*
X0391500Y0006000D01*
X0226500Y0006000D01*
X0213783Y0018717D01*
X0183547Y0018717D01*
X0148783Y0018717D01*
X0146500Y0021000D01*
X0146500Y0041000D01*
X0161500Y0041000D01*
X0176500Y0056000D01*
X0181461Y0056000D01*
X0183547Y0058087D01*
X0183547Y0050213D02*
X0195713Y0050213D01*
X0196500Y0051000D01*
X0183547Y0042339D02*
X0182209Y0041000D01*
X0171500Y0041000D01*
X0166500Y0036000D01*
X0156500Y0036000D01*
X0166500Y0026000D02*
X0176500Y0036000D01*
X0182012Y0036000D01*
X0183547Y0034465D01*
X0183547Y0026591D02*
X0215909Y0026591D01*
X0231500Y0011000D01*
X0346500Y0011000D01*
X0346500Y0021000D01*
X0381000Y0021000D01*
X0386000Y0016000D01*
X0316500Y0026000D02*
X0316500Y0046000D01*
X0321500Y0051000D01*
X0316500Y0046000D02*
X0311500Y0051000D01*
X0266500Y0051000D01*
X0249965Y0034465D01*
X0238665Y0034465D01*
X0238665Y0026591D02*
X0265909Y0026591D01*
X0266500Y0026000D01*
X0266500Y0041000D01*
X0247839Y0042339D02*
X0266500Y0061000D01*
X0277600Y0061000D01*
X0278700Y0092100D01*
X0259800Y0101000D01*
X0251500Y0091000D01*
X0234413Y0058087D02*
X0186500Y0106000D01*
X0181500Y0101000D02*
X0181500Y0131000D01*
X0356500Y0131000D01*
X0366500Y0121000D01*
X0371500Y0121000D01*
X0381500Y0131000D01*
X0386500Y0131000D01*
X0391500Y0126000D01*
X0391500Y0086500D01*
X0386000Y0081000D01*
X0366500Y0071000D02*
X0331500Y0071000D01*
X0336500Y0071000D02*
X0346500Y0071000D01*
X0366500Y0071000D01*
X0366500Y0046000D02*
X0386000Y0046000D01*
X0386500Y0046000D01*
X0247839Y0042339D02*
X0238665Y0042339D01*
X0238665Y0050213D02*
X0232287Y0050213D01*
X0181500Y0101000D01*
X0171500Y0101000D02*
X0171500Y0076000D01*
X0161500Y0066000D01*
X0156500Y0066000D01*
X0156500Y0056000D01*
X0156500Y0046000D02*
X0136000Y0066500D01*
X0136000Y0116000D01*
X0146500Y0115500D02*
X0147000Y0116000D01*
X0146500Y0115500D02*
X0146500Y0076000D01*
X0156500Y0076000D01*
X0156500Y0086000D02*
X0166500Y0086000D01*
X0156500Y0096000D02*
X0156500Y0126000D01*
X0126500Y0126000D01*
X0126500Y0111000D01*
X0106500Y0091000D01*
X0076500Y0091000D01*
X0091500Y0091000D01*
X0096500Y0086000D01*
X0096500Y0051000D01*
X0121500Y0026000D01*
X0126500Y0026000D01*
X0111500Y0011000D02*
X0096500Y0026000D01*
X0096343Y0026000D01*
X0086500Y0035843D01*
X0086500Y0081000D01*
X0076500Y0081000D01*
X0076500Y0121500D02*
X0111000Y0121500D01*
X0111500Y0121000D01*
X0116500Y0126000D01*
X0126500Y0126000D01*
X0234413Y0058087D02*
X0238665Y0058087D01*
X0166500Y0026000D02*
X0156500Y0026000D01*
X0175831Y0011000D02*
X0183547Y0018717D01*
X0175831Y0011000D02*
X0111500Y0011000D01*
D20*
X0196500Y0051000D03*
X0166500Y0086000D03*
X0321500Y0051000D03*
X0366500Y0046000D03*
M02*
